<svg id="svg" version="1.1" xmlns="http://www.w3.org/2000/svg" xmlns:xlink="http://www.w3.org/1999/xlink" width="400" height="400" viewBox="0, 0, 400,400"><g id="svgg"><path id="path0" d="M117.178 95.100 C 116.956 95.705,115.898 98.450,114.827 101.200 C 113.216 105.336,111.570 109.581,107.617 119.800 C 107.446 120.240,107.121 121.050,106.894 121.600 C 104.969 126.261,104.041 129.001,104.301 129.261 C 104.470 129.430,127.917 129.647,156.404 129.743 C 187.359 129.847,209.649 130.080,211.800 130.321 C 220.556 131.304,223.198 131.679,228.142 132.641 C 247.533 136.414,258.979 144.341,265.916 158.800 C 278.542 185.120,270.145 220.665,244.946 247.558 C 241.917 250.790,237.288 255.067,233.645 258.000 C 232.689 258.770,231.702 259.583,231.453 259.806 C 227.999 262.899,214.276 271.523,208.600 274.167 C 197.952 279.127,196.560 279.699,188.895 282.261 C 183.105 284.197,172.518 286.979,168.400 287.647 C 166.970 287.879,164.900 288.219,163.800 288.404 C 153.202 290.179,134.049 291.450,133.412 290.420 C 133.223 290.114,136.877 281.148,140.266 273.600 C 140.612 272.830,141.162 271.570,141.489 270.800 C 141.816 270.030,142.447 268.590,142.892 267.600 C 143.337 266.610,143.836 265.440,144.000 265.000 C 144.164 264.560,144.663 263.390,145.109 262.400 C 146.946 258.316,147.600 256.799,147.600 256.616 C 147.600 256.510,148.030 255.473,148.557 254.312 C 149.083 253.150,150.622 249.590,151.977 246.400 C 153.332 243.210,154.682 240.060,154.977 239.400 C 155.271 238.740,156.093 236.850,156.803 235.200 C 157.512 233.550,158.522 231.250,159.046 230.088 C 159.571 228.927,160.000 227.897,160.000 227.800 C 160.000 227.703,160.431 226.673,160.958 225.512 C 161.485 224.350,163.847 218.900,166.206 213.400 C 168.565 207.900,170.924 202.450,171.448 201.288 C 171.971 200.127,172.400 199.097,172.400 199.000 C 172.400 198.903,172.830 197.873,173.355 196.712 C 174.617 193.923,175.963 190.885,176.596 189.400 C 176.877 188.740,177.488 187.347,177.953 186.304 C 178.419 185.262,178.800 184.322,178.800 184.216 C 178.800 184.110,179.232 183.073,179.760 181.912 C 180.288 180.750,182.647 175.300,185.002 169.800 C 187.357 164.300,189.715 158.850,190.242 157.688 C 190.769 156.527,191.200 155.496,191.200 155.398 C 191.200 155.160,193.508 149.985,194.006 149.105 C 194.223 148.723,194.400 148.228,194.400 148.005 C 194.400 147.532,153.251 147.434,152.587 147.906 C 152.360 148.068,151.204 150.450,150.018 153.200 C 148.833 155.950,147.354 159.330,146.731 160.710 C 146.109 162.091,145.600 163.300,145.600 163.398 C 145.600 163.496,145.150 164.572,144.600 165.788 C 144.050 167.005,143.150 168.995,142.600 170.212 C 142.050 171.428,141.600 172.504,141.600 172.602 C 141.600 172.700,141.060 173.959,140.400 175.400 C 139.740 176.841,139.200 178.107,139.200 178.214 C 139.200 178.321,138.848 179.172,138.419 180.104 C 137.989 181.037,135.632 186.480,133.181 192.200 C 130.730 197.920,128.291 203.550,127.762 204.712 C 127.233 205.873,126.800 206.903,126.800 207.000 C 126.800 207.097,126.331 208.217,125.757 209.488 C 124.735 211.752,124.017 213.394,122.996 215.800 C 122.716 216.460,122.017 218.040,121.443 219.312 C 120.869 220.583,120.400 221.710,120.400 221.816 C 120.400 221.922,120.052 222.772,119.627 223.704 C 119.202 224.637,117.743 228.010,116.384 231.200 C 115.025 234.390,113.554 237.810,113.115 238.800 C 112.364 240.492,112.108 241.082,110.600 244.600 C 110.270 245.370,109.709 246.675,109.353 247.500 C 108.996 248.325,108.476 249.540,108.196 250.200 C 107.916 250.860,107.217 252.440,106.643 253.712 C 106.069 254.983,105.600 256.103,105.600 256.200 C 105.600 256.297,105.172 257.327,104.648 258.488 C 104.125 259.650,102.307 263.840,100.609 267.800 C 98.910 271.760,97.088 275.950,96.560 277.112 C 96.032 278.273,95.600 279.303,95.600 279.400 C 95.600 279.497,95.131 280.617,94.557 281.888 C 93.535 284.152,92.817 285.794,91.796 288.200 C 91.516 288.860,90.817 290.440,90.243 291.712 C 89.669 292.983,89.200 294.110,89.200 294.216 C 89.200 294.322,88.845 295.172,88.411 296.104 C 87.977 297.037,86.636 300.140,85.431 303.000 L 83.239 308.200 128.319 308.329 C 177.545 308.470,179.384 308.414,193.600 306.351 C 207.230 304.373,225.614 299.357,236.400 294.674 C 237.170 294.339,238.610 293.744,239.600 293.351 C 245.892 290.855,259.550 283.075,264.029 279.436 C 264.594 278.976,265.658 278.150,266.392 277.600 C 267.126 277.050,267.923 276.419,268.163 276.197 C 268.404 275.976,269.230 275.277,270.000 274.644 C 277.771 268.258,287.282 258.563,293.587 250.600 C 295.155 248.620,296.706 246.675,297.033 246.279 C 298.064 245.030,305.008 234.691,306.220 232.600 C 306.858 231.500,307.696 230.060,308.081 229.400 C 313.754 219.692,320.820 201.962,322.508 193.200 C 322.614 192.650,322.976 190.850,323.311 189.200 C 325.664 177.634,326.083 163.964,324.360 155.000 C 323.081 148.340,322.287 145.192,320.729 140.600 C 316.842 129.141,306.492 114.784,297.081 107.798 C 295.717 106.784,294.330 105.740,294.000 105.477 C 289.316 101.739,278.877 97.393,270.200 95.569 C 262.819 94.018,262.240 94.007,188.690 94.003 L 117.580 94.000 117.178 95.100 M252.333 218.761 C 251.150 221.966,234.773 236.457,230.000 238.522 C 229.670 238.665,228.500 239.323,227.400 239.983 C 225.328 241.228,220.642 243.582,216.771 245.322 C 204.901 250.658,184.643 254.813,170.546 254.804 C 165.102 254.800,164.870 254.834,164.295 255.711 C 163.967 256.212,161.893 260.127,159.687 264.411 C 157.481 268.695,155.398 272.727,155.059 273.371 C 154.160 275.076,154.434 275.197,158.716 274.979 C 191.411 273.314,223.117 257.168,243.606 231.751 C 243.939 231.338,244.839 230.190,245.606 229.200 C 246.372 228.210,247.104 227.310,247.231 227.200 C 247.729 226.769,252.800 219.070,252.800 218.745 C 252.800 218.292,252.503 218.302,252.333 218.761 " stroke="none" fill="#fafafa" fill-rule="evenodd"></path><path id="path1" d="M182.400 9.542 C 182.400 9.730,179.745 10.012,176.500 10.168 C 173.255 10.324,170.429 10.620,170.220 10.826 C 170.011 11.032,168.897 11.200,167.744 11.200 C 166.591 11.200,165.536 11.380,165.400 11.600 C 165.264 11.820,164.364 12.000,163.400 12.000 C 162.436 12.000,161.536 12.180,161.400 12.400 C 161.264 12.620,160.353 12.800,159.376 12.800 C 158.399 12.800,157.600 12.980,157.600 13.200 C 157.600 13.420,156.880 13.600,156.000 13.600 C 155.120 13.600,154.400 13.780,154.400 14.000 C 154.400 14.220,153.680 14.400,152.800 14.400 C 151.920 14.400,151.200 14.580,151.200 14.800 C 151.200 15.020,150.581 15.200,149.824 15.200 C 149.067 15.200,148.336 15.380,148.200 15.600 C 148.064 15.820,147.524 16.000,147.000 16.000 C 146.476 16.000,145.936 16.180,145.800 16.400 C 145.664 16.620,145.034 16.800,144.400 16.800 C 143.766 16.800,143.136 16.980,143.000 17.200 C 142.864 17.420,142.223 17.600,141.576 17.600 C 140.929 17.600,140.400 17.780,140.400 18.000 C 140.400 18.220,139.860 18.400,139.200 18.400 C 138.540 18.400,138.000 18.580,138.000 18.800 C 138.000 19.020,137.460 19.200,136.800 19.200 C 136.140 19.200,135.600 19.380,135.600 19.600 C 135.600 19.820,135.240 20.000,134.800 20.000 C 134.360 20.000,134.000 20.180,134.000 20.400 C 134.000 20.620,133.460 20.800,132.800 20.800 C 132.140 20.800,131.600 20.980,131.600 21.200 C 131.600 21.420,131.161 21.600,130.624 21.600 C 130.087 21.600,129.536 21.780,129.400 22.000 C 129.264 22.220,128.803 22.400,128.376 22.400 C 127.949 22.400,127.600 22.580,127.600 22.800 C 127.600 23.020,127.150 23.200,126.600 23.200 C 126.050 23.200,125.600 23.380,125.600 23.600 C 125.600 23.820,125.240 24.000,124.800 24.000 C 124.360 24.000,124.000 24.180,124.000 24.400 C 124.000 24.620,123.640 24.800,123.200 24.800 C 122.760 24.800,122.400 24.980,122.400 25.200 C 122.400 25.420,122.040 25.600,121.600 25.600 C 121.160 25.600,120.800 25.780,120.800 26.000 C 120.800 26.220,120.260 26.400,119.600 26.400 C 118.940 26.400,118.400 26.580,118.400 26.800 C 118.400 27.020,118.096 27.200,117.724 27.200 C 116.816 27.200,109.917 30.645,108.868 31.623 C 108.409 32.050,107.756 32.400,107.417 32.400 C 107.078 32.400,106.800 32.580,106.800 32.800 C 106.800 33.020,106.440 33.200,106.000 33.200 C 105.560 33.200,105.200 33.380,105.200 33.600 C 105.200 33.820,104.922 34.000,104.583 34.000 C 104.244 34.000,103.580 34.360,103.108 34.800 C 102.636 35.240,102.013 35.600,101.725 35.600 C 101.436 35.600,101.200 35.780,101.200 36.000 C 101.200 36.220,100.880 36.400,100.488 36.400 C 100.097 36.400,99.517 36.760,99.200 37.200 C 98.883 37.640,98.303 38.000,97.912 38.000 C 97.520 38.000,97.200 38.180,97.200 38.400 C 97.200 38.620,96.930 38.800,96.600 38.800 C 96.270 38.800,96.000 38.980,96.000 39.200 C 96.000 39.420,95.730 39.600,95.400 39.600 C 95.070 39.600,94.800 39.780,94.800 40.000 C 94.800 40.220,94.570 40.400,94.288 40.400 C 94.007 40.400,93.517 40.760,93.200 41.200 C 92.883 41.640,92.343 42.000,92.000 42.000 C 91.657 42.000,91.117 42.360,90.800 42.800 C 90.483 43.240,89.911 43.600,89.530 43.600 C 89.148 43.600,88.386 44.050,87.836 44.600 C 87.286 45.150,86.675 45.600,86.478 45.600 C 86.280 45.600,85.554 46.140,84.863 46.800 C 84.172 47.460,83.447 48.000,83.252 48.000 C 83.056 48.000,82.195 48.675,81.338 49.500 C 80.480 50.325,79.289 51.255,78.689 51.568 C 78.090 51.880,77.600 52.257,77.600 52.406 C 77.600 52.863,76.132 54.400,75.696 54.400 C 74.667 54.400,54.400 74.667,54.400 75.696 C 54.400 76.132,52.863 77.600,52.406 77.600 C 52.257 77.600,51.880 78.090,51.568 78.689 C 51.255 79.289,50.325 80.480,49.500 81.338 C 48.675 82.195,48.000 83.056,48.000 83.252 C 48.000 83.447,47.460 84.172,46.800 84.863 C 46.140 85.554,45.600 86.280,45.600 86.478 C 45.600 86.675,45.150 87.286,44.600 87.836 C 44.050 88.386,43.600 89.148,43.600 89.530 C 43.600 89.911,43.240 90.483,42.800 90.800 C 42.360 91.117,42.000 91.657,42.000 92.000 C 42.000 92.343,41.640 92.883,41.200 93.200 C 40.760 93.517,40.400 94.007,40.400 94.288 C 40.400 94.570,40.220 94.800,40.000 94.800 C 39.780 94.800,39.600 95.070,39.600 95.400 C 39.600 95.730,39.420 96.000,39.200 96.000 C 38.980 96.000,38.800 96.270,38.800 96.600 C 38.800 96.930,38.620 97.200,38.400 97.200 C 38.180 97.200,38.000 97.520,38.000 97.912 C 38.000 98.303,37.640 98.883,37.200 99.200 C 36.760 99.517,36.400 100.097,36.400 100.488 C 36.400 100.880,36.220 101.200,36.000 101.200 C 35.780 101.200,35.600 101.436,35.600 101.725 C 35.600 102.013,35.240 102.636,34.800 103.108 C 34.360 103.580,34.000 104.244,34.000 104.583 C 34.000 104.922,33.820 105.200,33.600 105.200 C 33.380 105.200,33.200 105.560,33.200 106.000 C 33.200 106.440,33.020 106.800,32.800 106.800 C 32.580 106.800,32.400 107.078,32.400 107.417 C 32.400 107.756,32.050 108.409,31.623 108.868 C 30.645 109.917,27.200 116.816,27.200 117.724 C 27.200 118.096,27.020 118.400,26.800 118.400 C 26.580 118.400,26.400 118.940,26.400 119.600 C 26.400 120.260,26.220 120.800,26.000 120.800 C 25.780 120.800,25.600 121.160,25.600 121.600 C 25.600 122.040,25.420 122.400,25.200 122.400 C 24.980 122.400,24.800 122.760,24.800 123.200 C 24.800 123.640,24.620 124.000,24.400 124.000 C 24.180 124.000,24.000 124.360,24.000 124.800 C 24.000 125.240,23.820 125.600,23.600 125.600 C 23.380 125.600,23.200 126.050,23.200 126.600 C 23.200 127.150,23.020 127.600,22.800 127.600 C 22.580 127.600,22.400 127.949,22.400 128.376 C 22.400 128.803,22.220 129.264,22.000 129.400 C 21.780 129.536,21.600 130.087,21.600 130.624 C 21.600 131.161,21.420 131.600,21.200 131.600 C 20.980 131.600,20.800 132.140,20.800 132.800 C 20.800 133.460,20.620 134.000,20.400 134.000 C 20.180 134.000,20.000 134.360,20.000 134.800 C 20.000 135.240,19.820 135.600,19.600 135.600 C 19.380 135.600,19.200 136.140,19.200 136.800 C 19.200 137.460,19.020 138.000,18.800 138.000 C 18.580 138.000,18.400 138.540,18.400 139.200 C 18.400 139.860,18.220 140.400,18.000 140.400 C 17.780 140.400,17.600 140.929,17.600 141.576 C 17.600 142.223,17.420 142.864,17.200 143.000 C 16.980 143.136,16.800 143.766,16.800 144.400 C 16.800 145.034,16.620 145.664,16.400 145.800 C 16.180 145.936,16.000 146.476,16.000 147.000 C 16.000 147.524,15.820 148.064,15.600 148.200 C 15.380 148.336,15.200 149.067,15.200 149.824 C 15.200 150.581,15.020 151.200,14.800 151.200 C 14.580 151.200,14.400 151.920,14.400 152.800 C 14.400 153.680,14.220 154.400,14.000 154.400 C 13.780 154.400,13.600 155.120,13.600 156.000 C 13.600 156.880,13.420 157.600,13.200 157.600 C 12.980 157.600,12.800 158.399,12.800 159.376 C 12.800 160.353,12.620 161.264,12.400 161.400 C 12.180 161.536,12.000 162.436,12.000 163.400 C 12.000 164.364,11.820 165.264,11.600 165.400 C 11.380 165.536,11.200 166.591,11.200 167.744 C 11.200 168.897,11.032 170.011,10.826 170.220 C 10.620 170.429,10.324 173.255,10.168 176.500 C 10.012 179.745,9.730 182.400,9.542 182.400 C 9.354 182.400,9.200 190.320,9.200 200.000 C 9.200 209.680,9.354 217.600,9.542 217.600 C 9.730 217.600,10.012 220.255,10.168 223.500 C 10.324 226.745,10.620 229.571,10.826 229.780 C 11.032 229.989,11.200 231.103,11.200 232.256 C 11.200 233.409,11.380 234.464,11.600 234.600 C 11.820 234.736,12.000 235.636,12.000 236.600 C 12.000 237.564,12.180 238.464,12.400 238.600 C 12.620 238.736,12.800 239.647,12.800 240.624 C 12.800 241.601,12.980 242.400,13.200 242.400 C 13.420 242.400,13.600 243.120,13.600 244.000 C 13.600 244.880,13.780 245.600,14.000 245.600 C 14.220 245.600,14.400 246.320,14.400 247.200 C 14.400 248.080,14.580 248.800,14.800 248.800 C 15.020 248.800,15.200 249.419,15.200 250.176 C 15.200 250.933,15.380 251.664,15.600 251.800 C 15.820 251.936,16.000 252.577,16.000 253.224 C 16.000 253.871,16.180 254.400,16.400 254.400 C 16.620 254.400,16.800 254.929,16.800 255.576 C 16.800 256.223,16.980 256.864,17.200 257.000 C 17.420 257.136,17.600 257.777,17.600 258.424 C 17.600 259.071,17.780 259.600,18.000 259.600 C 18.220 259.600,18.400 260.140,18.400 260.800 C 18.400 261.460,18.580 262.000,18.800 262.000 C 19.020 262.000,19.200 262.540,19.200 263.200 C 19.200 263.860,19.380 264.400,19.600 264.400 C 19.820 264.400,20.000 264.760,20.000 265.200 C 20.000 265.640,20.180 266.000,20.400 266.000 C 20.620 266.000,20.800 266.540,20.800 267.200 C 20.800 267.860,20.980 268.400,21.200 268.400 C 21.420 268.400,21.600 268.940,21.600 269.600 C 21.600 270.260,21.780 270.800,22.000 270.800 C 22.220 270.800,22.400 271.160,22.400 271.600 C 22.400 272.040,22.580 272.400,22.800 272.400 C 23.020 272.400,23.200 272.850,23.200 273.400 C 23.200 273.950,23.380 274.400,23.600 274.400 C 23.820 274.400,24.000 274.760,24.000 275.200 C 24.000 275.640,24.180 276.000,24.400 276.000 C 24.620 276.000,24.800 276.360,24.800 276.800 C 24.800 277.240,24.980 277.600,25.200 277.600 C 25.420 277.600,25.600 277.960,25.600 278.400 C 25.600 278.840,25.780 279.200,26.000 279.200 C 26.220 279.200,26.400 279.740,26.400 280.400 C 26.400 281.060,26.580 281.600,26.800 281.600 C 27.020 281.600,27.200 281.904,27.200 282.276 C 27.200 283.229,30.816 290.466,31.683 291.247 C 32.077 291.603,32.400 292.188,32.400 292.547 C 32.400 292.906,32.580 293.200,32.800 293.200 C 33.020 293.200,33.200 293.560,33.200 294.000 C 33.200 294.440,33.380 294.800,33.600 294.800 C 33.820 294.800,34.000 295.160,34.000 295.600 C 34.000 296.040,34.158 296.400,34.351 296.400 C 34.545 296.400,34.927 296.940,35.200 297.600 C 35.473 298.260,35.855 298.800,36.049 298.800 C 36.242 298.800,36.400 299.120,36.400 299.512 C 36.400 299.903,36.760 300.483,37.200 300.800 C 37.640 301.117,38.000 301.697,38.000 302.088 C 38.000 302.480,38.180 302.800,38.400 302.800 C 38.620 302.800,38.800 303.036,38.800 303.325 C 38.800 303.613,39.115 304.198,39.500 304.625 C 39.885 305.051,40.455 305.895,40.768 306.500 C 41.080 307.105,41.485 307.600,41.668 307.600 C 41.850 307.600,42.000 307.830,42.000 308.112 C 42.000 308.393,42.360 308.883,42.800 309.200 C 43.240 309.517,43.600 310.089,43.600 310.470 C 43.600 310.852,44.050 311.614,44.600 312.164 C 45.150 312.714,45.600 313.325,45.600 313.522 C 45.600 313.720,46.140 314.446,46.800 315.137 C 47.460 315.828,48.000 316.588,48.000 316.828 C 48.000 317.067,48.720 317.954,49.600 318.800 C 50.480 319.646,51.200 320.496,51.200 320.690 C 51.200 321.064,53.330 323.500,57.600 328.009 C 59.030 329.520,61.010 331.694,62.000 332.840 C 64.051 335.216,64.556 335.721,68.062 338.901 C 69.458 340.167,71.659 342.192,72.954 343.401 C 74.248 344.611,75.487 345.600,75.707 345.600 C 76.135 345.600,77.600 347.143,77.600 347.594 C 77.600 347.743,78.095 348.120,78.700 348.432 C 79.305 348.745,80.461 349.675,81.269 350.500 C 82.076 351.325,82.933 352.000,83.172 352.000 C 83.412 352.000,84.172 352.540,84.863 353.200 C 85.554 353.860,86.280 354.400,86.478 354.400 C 86.675 354.400,87.286 354.850,87.836 355.400 C 88.386 355.950,88.981 356.400,89.157 356.400 C 89.333 356.400,89.910 356.781,90.439 357.247 C 90.967 357.713,91.895 358.271,92.500 358.486 C 93.105 358.702,93.600 359.041,93.600 359.239 C 93.600 359.438,93.788 359.600,94.017 359.600 C 94.246 359.600,94.820 359.960,95.292 360.400 C 95.764 360.840,96.387 361.200,96.675 361.200 C 96.964 361.200,97.200 361.380,97.200 361.600 C 97.200 361.820,97.520 362.000,97.912 362.000 C 98.303 362.000,98.883 362.360,99.200 362.800 C 99.517 363.240,100.014 363.600,100.305 363.600 C 100.596 363.600,101.220 363.960,101.692 364.400 C 102.164 364.840,102.787 365.200,103.075 365.200 C 103.364 365.200,103.600 365.380,103.600 365.600 C 103.600 365.820,103.960 366.000,104.400 366.000 C 104.840 366.000,105.200 366.180,105.200 366.400 C 105.200 366.620,105.560 366.800,106.000 366.800 C 106.440 366.800,106.800 366.980,106.800 367.200 C 106.800 367.420,107.094 367.600,107.453 367.600 C 107.812 367.600,108.397 367.924,108.753 368.321 C 109.520 369.175,119.197 374.000,120.144 374.000 C 120.505 374.000,120.800 374.164,120.800 374.365 C 120.800 374.566,121.520 374.851,122.400 375.000 C 123.280 375.149,124.000 375.434,124.000 375.635 C 124.000 375.836,124.360 376.000,124.800 376.000 C 125.240 376.000,125.600 376.180,125.600 376.400 C 125.600 376.620,126.050 376.800,126.600 376.800 C 127.150 376.800,127.600 376.980,127.600 377.200 C 127.600 377.420,127.949 377.600,128.376 377.600 C 128.803 377.600,129.264 377.780,129.400 378.000 C 129.536 378.220,130.087 378.400,130.624 378.400 C 131.161 378.400,131.600 378.580,131.600 378.800 C 131.600 379.020,132.140 379.200,132.800 379.200 C 133.460 379.200,134.000 379.380,134.000 379.600 C 134.000 379.820,134.360 380.000,134.800 380.000 C 135.240 380.000,135.600 380.180,135.600 380.400 C 135.600 380.620,136.140 380.800,136.800 380.800 C 137.460 380.800,138.000 380.980,138.000 381.200 C 138.000 381.420,138.540 381.600,139.200 381.600 C 139.860 381.600,140.400 381.780,140.400 382.000 C 140.400 382.220,140.929 382.400,141.576 382.400 C 142.223 382.400,142.864 382.580,143.000 382.800 C 143.136 383.020,143.766 383.200,144.400 383.200 C 145.034 383.200,145.664 383.380,145.800 383.600 C 145.936 383.820,146.476 384.000,147.000 384.000 C 147.524 384.000,148.064 384.180,148.200 384.400 C 148.336 384.620,149.067 384.800,149.824 384.800 C 150.581 384.800,151.200 384.980,151.200 385.200 C 151.200 385.420,151.920 385.600,152.800 385.600 C 153.680 385.600,154.400 385.780,154.400 386.000 C 154.400 386.220,155.120 386.400,156.000 386.400 C 156.880 386.400,157.600 386.580,157.600 386.800 C 157.600 387.020,158.399 387.200,159.376 387.200 C 160.353 387.200,161.264 387.380,161.400 387.600 C 161.536 387.820,162.436 388.000,163.400 388.000 C 164.364 388.000,165.264 388.180,165.400 388.400 C 165.536 388.620,166.627 388.800,167.824 388.800 C 169.021 388.800,170.000 388.980,170.000 389.200 C 170.000 389.427,171.173 389.600,172.720 389.600 C 174.216 389.600,175.611 389.767,175.820 389.971 C 177.134 391.253,222.866 391.253,224.180 389.971 C 224.389 389.767,225.784 389.600,227.280 389.600 C 228.827 389.600,230.000 389.427,230.000 389.200 C 230.000 388.980,230.979 388.800,232.176 388.800 C 233.373 388.800,234.464 388.620,234.600 388.400 C 234.736 388.180,235.636 388.000,236.600 388.000 C 237.564 388.000,238.464 387.820,238.600 387.600 C 238.736 387.380,239.647 387.200,240.624 387.200 C 241.601 387.200,242.400 387.020,242.400 386.800 C 242.400 386.580,243.120 386.400,244.000 386.400 C 244.880 386.400,245.600 386.220,245.600 386.000 C 245.600 385.780,246.320 385.600,247.200 385.600 C 248.080 385.600,248.800 385.420,248.800 385.200 C 248.800 384.980,249.520 384.800,250.400 384.800 C 251.280 384.800,252.000 384.620,252.000 384.400 C 252.000 384.180,252.540 384.000,253.200 384.000 C 253.860 384.000,254.400 383.820,254.400 383.600 C 254.400 383.380,255.030 383.200,255.800 383.200 C 256.570 383.200,257.200 383.020,257.200 382.800 C 257.200 382.580,257.740 382.400,258.400 382.400 C 259.060 382.400,259.600 382.220,259.600 382.000 C 259.600 381.780,260.140 381.600,260.800 381.600 C 261.460 381.600,262.000 381.420,262.000 381.200 C 262.000 380.980,262.540 380.800,263.200 380.800 C 263.860 380.800,264.400 380.620,264.400 380.400 C 264.400 380.180,264.760 380.000,265.200 380.000 C 265.640 380.000,266.000 379.820,266.000 379.600 C 266.000 379.380,266.540 379.200,267.200 379.200 C 267.860 379.200,268.400 379.020,268.400 378.800 C 268.400 378.580,268.940 378.400,269.600 378.400 C 270.260 378.400,270.800 378.220,270.800 378.000 C 270.800 377.780,271.160 377.600,271.600 377.600 C 272.040 377.600,272.400 377.420,272.400 377.200 C 272.400 376.980,272.850 376.800,273.400 376.800 C 273.950 376.800,274.400 376.620,274.400 376.400 C 274.400 376.180,274.760 376.000,275.200 376.000 C 275.640 376.000,276.000 375.836,276.000 375.635 C 276.000 375.434,276.720 375.149,277.600 375.000 C 278.480 374.851,279.200 374.566,279.200 374.365 C 279.200 374.164,279.479 374.000,279.819 374.000 C 280.160 374.000,281.184 373.640,282.094 373.200 C 283.005 372.760,283.971 372.400,284.242 372.400 C 284.512 372.400,284.793 372.264,284.867 372.098 C 284.940 371.932,286.260 371.171,287.800 370.407 C 289.340 369.643,290.891 368.699,291.247 368.309 C 291.603 367.919,292.188 367.600,292.547 367.600 C 292.906 367.600,293.200 367.420,293.200 367.200 C 293.200 366.980,293.560 366.800,294.000 366.800 C 294.440 366.800,294.800 366.620,294.800 366.400 C 294.800 366.180,295.160 366.000,295.600 366.000 C 296.040 366.000,296.400 365.820,296.400 365.600 C 296.400 365.380,296.636 365.200,296.925 365.200 C 297.213 365.200,297.836 364.840,298.308 364.400 C 298.780 363.960,299.404 363.600,299.695 363.600 C 299.986 363.600,300.483 363.240,300.800 362.800 C 301.117 362.360,301.697 362.000,302.088 362.000 C 302.480 362.000,302.800 361.820,302.800 361.600 C 302.800 361.380,303.036 361.200,303.325 361.200 C 303.613 361.200,304.198 360.885,304.625 360.500 C 305.051 360.115,306.080 359.441,306.912 359.003 C 307.743 358.564,308.896 357.799,309.474 357.303 C 310.052 356.806,310.668 356.400,310.844 356.400 C 311.020 356.400,311.614 355.950,312.164 355.400 C 312.714 354.850,313.370 354.400,313.621 354.400 C 313.873 354.400,314.583 353.860,315.200 353.200 C 315.817 352.540,316.533 352.000,316.792 352.000 C 317.051 352.000,317.954 351.280,318.800 350.400 C 319.646 349.520,320.529 348.800,320.762 348.800 C 320.996 348.800,322.096 347.945,323.205 346.900 C 325.796 344.460,328.537 341.963,331.655 339.200 C 334.782 336.429,336.429 334.782,339.200 331.655 C 341.963 328.537,344.460 325.796,346.900 323.205 C 347.945 322.096,348.800 320.996,348.800 320.762 C 348.800 320.529,349.520 319.646,350.400 318.800 C 351.280 317.954,352.000 317.051,352.000 316.792 C 352.000 316.533,352.540 315.817,353.200 315.200 C 353.860 314.583,354.400 313.873,354.400 313.621 C 354.400 313.370,354.850 312.714,355.400 312.164 C 355.950 311.614,356.400 311.020,356.400 310.844 C 356.400 310.668,356.806 310.052,357.303 309.474 C 357.799 308.896,358.564 307.743,359.003 306.912 C 359.441 306.080,360.115 305.051,360.500 304.625 C 360.885 304.198,361.200 303.613,361.200 303.325 C 361.200 303.036,361.380 302.800,361.600 302.800 C 361.820 302.800,362.000 302.480,362.000 302.088 C 362.000 301.697,362.360 301.117,362.800 300.800 C 363.240 300.483,363.600 299.986,363.600 299.695 C 363.600 299.404,363.960 298.780,364.400 298.308 C 364.840 297.836,365.200 297.213,365.200 296.925 C 365.200 296.636,365.380 296.400,365.600 296.400 C 365.820 296.400,366.000 296.040,366.000 295.600 C 366.000 295.160,366.180 294.800,366.400 294.800 C 366.620 294.800,366.800 294.440,366.800 294.000 C 366.800 293.560,366.980 293.200,367.200 293.200 C 367.420 293.200,367.600 292.906,367.600 292.547 C 367.600 292.188,367.919 291.603,368.309 291.247 C 368.699 290.891,369.643 289.340,370.407 287.800 C 371.171 286.260,371.932 284.940,372.098 284.867 C 372.264 284.793,372.400 284.512,372.400 284.242 C 372.400 283.971,372.760 283.005,373.200 282.094 C 373.640 281.184,374.000 280.160,374.000 279.819 C 374.000 279.479,374.164 279.200,374.365 279.200 C 374.566 279.200,374.851 278.480,375.000 277.600 C 375.149 276.720,375.434 276.000,375.635 276.000 C 375.836 276.000,376.000 275.640,376.000 275.200 C 376.000 274.760,376.180 274.400,376.400 274.400 C 376.620 274.400,376.800 273.950,376.800 273.400 C 376.800 272.850,376.980 272.400,377.200 272.400 C 377.420 272.400,377.600 272.040,377.600 271.600 C 377.600 271.160,377.780 270.800,378.000 270.800 C 378.220 270.800,378.400 270.260,378.400 269.600 C 378.400 268.940,378.580 268.400,378.800 268.400 C 379.020 268.400,379.200 267.860,379.200 267.200 C 379.200 266.540,379.380 266.000,379.600 266.000 C 379.820 266.000,380.000 265.640,380.000 265.200 C 380.000 264.760,380.180 264.400,380.400 264.400 C 380.620 264.400,380.800 263.860,380.800 263.200 C 380.800 262.540,380.980 262.000,381.200 262.000 C 381.420 262.000,381.600 261.460,381.600 260.800 C 381.600 260.140,381.780 259.600,382.000 259.600 C 382.220 259.600,382.400 259.060,382.400 258.400 C 382.400 257.740,382.580 257.200,382.800 257.200 C 383.020 257.200,383.200 256.570,383.200 255.800 C 383.200 255.030,383.380 254.400,383.600 254.400 C 383.820 254.400,384.000 253.860,384.000 253.200 C 384.000 252.540,384.180 252.000,384.400 252.000 C 384.620 252.000,384.800 251.280,384.800 250.400 C 384.800 249.520,384.980 248.800,385.200 248.800 C 385.420 248.800,385.600 248.080,385.600 247.200 C 385.600 246.320,385.780 245.600,386.000 245.600 C 386.220 245.600,386.400 244.880,386.400 244.000 C 386.400 243.120,386.580 242.400,386.800 242.400 C 387.020 242.400,387.200 241.601,387.200 240.624 C 387.200 239.647,387.380 238.736,387.600 238.600 C 387.820 238.464,388.000 237.564,388.000 236.600 C 388.000 235.636,388.180 234.736,388.400 234.600 C 388.620 234.464,388.800 233.373,388.800 232.176 C 388.800 230.979,388.980 230.000,389.200 230.000 C 389.427 230.000,389.600 228.827,389.600 227.280 C 389.600 225.784,389.767 224.389,389.971 224.180 C 391.253 222.866,391.253 177.134,389.971 175.820 C 389.767 175.611,389.600 174.216,389.600 172.720 C 389.600 171.173,389.427 170.000,389.200 170.000 C 388.980 170.000,388.800 169.021,388.800 167.824 C 388.800 166.627,388.620 165.536,388.400 165.400 C 388.180 165.264,388.000 164.364,388.000 163.400 C 388.000 162.436,387.820 161.536,387.600 161.400 C 387.380 161.264,387.200 160.353,387.200 159.376 C 387.200 158.399,387.020 157.600,386.800 157.600 C 386.580 157.600,386.400 156.880,386.400 156.000 C 386.400 155.120,386.220 154.400,386.000 154.400 C 385.780 154.400,385.600 153.680,385.600 152.800 C 385.600 151.920,385.420 151.200,385.200 151.200 C 384.980 151.200,384.800 150.581,384.800 149.824 C 384.800 149.067,384.620 148.336,384.400 148.200 C 384.180 148.064,384.000 147.524,384.000 147.000 C 384.000 146.476,383.820 145.936,383.600 145.800 C 383.380 145.664,383.200 145.034,383.200 144.400 C 383.200 143.766,383.020 143.136,382.800 143.000 C 382.580 142.864,382.400 142.223,382.400 141.576 C 382.400 140.929,382.220 140.400,382.000 140.400 C 381.780 140.400,381.600 139.860,381.600 139.200 C 381.600 138.540,381.420 138.000,381.200 138.000 C 380.980 138.000,380.800 137.460,380.800 136.800 C 380.800 136.140,380.620 135.600,380.400 135.600 C 380.180 135.600,380.000 135.240,380.000 134.800 C 380.000 134.360,379.820 134.000,379.600 134.000 C 379.380 134.000,379.200 133.460,379.200 132.800 C 379.200 132.140,379.020 131.600,378.800 131.600 C 378.580 131.600,378.400 131.161,378.400 130.624 C 378.400 130.087,378.220 129.536,378.000 129.400 C 377.780 129.264,377.600 128.803,377.600 128.376 C 377.600 127.949,377.420 127.600,377.200 127.600 C 376.980 127.600,376.800 127.150,376.800 126.600 C 376.800 126.050,376.620 125.600,376.400 125.600 C 376.180 125.600,376.000 125.240,376.000 124.800 C 376.000 124.360,375.836 124.000,375.635 124.000 C 375.434 124.000,375.149 123.280,375.000 122.400 C 374.851 121.520,374.566 120.800,374.365 120.800 C 374.164 120.800,374.000 120.505,374.000 120.144 C 374.000 119.197,369.175 109.520,368.321 108.753 C 367.924 108.397,367.600 107.812,367.600 107.453 C 367.600 107.094,367.420 106.800,367.200 106.800 C 366.980 106.800,366.800 106.440,366.800 106.000 C 366.800 105.560,366.620 105.200,366.400 105.200 C 366.180 105.200,366.000 104.840,366.000 104.400 C 366.000 103.960,365.820 103.600,365.600 103.600 C 365.380 103.600,365.200 103.364,365.200 103.075 C 365.200 102.787,364.840 102.164,364.400 101.692 C 363.960 101.220,363.600 100.596,363.600 100.305 C 363.600 100.014,363.240 99.517,362.800 99.200 C 362.360 98.883,362.000 98.303,362.000 97.912 C 362.000 97.520,361.820 97.200,361.600 97.200 C 361.380 97.200,361.200 96.964,361.200 96.675 C 361.200 96.387,360.840 95.764,360.400 95.292 C 359.960 94.820,359.600 94.246,359.600 94.017 C 359.600 93.788,359.438 93.600,359.239 93.600 C 359.041 93.600,358.702 93.105,358.486 92.500 C 358.271 91.895,357.713 90.967,357.247 90.439 C 356.781 89.910,356.400 89.333,356.400 89.157 C 356.400 88.981,355.950 88.386,355.400 87.836 C 354.850 87.286,354.400 86.675,354.400 86.478 C 354.400 86.280,353.860 85.554,353.200 84.863 C 352.540 84.172,352.000 83.412,352.000 83.172 C 352.000 82.933,351.325 82.076,350.500 81.269 C 349.675 80.461,348.745 79.305,348.432 78.700 C 348.120 78.095,347.743 77.600,347.594 77.600 C 347.143 77.600,345.600 76.135,345.600 75.707 C 345.600 75.487,344.611 74.248,343.401 72.954 C 342.192 71.659,340.167 69.458,338.901 68.062 C 335.721 64.556,335.216 64.051,332.840 62.000 C 331.694 61.010,329.520 59.030,328.009 57.600 C 323.500 53.330,321.064 51.200,320.690 51.200 C 320.496 51.200,319.646 50.480,318.800 49.600 C 317.954 48.720,317.067 48.000,316.828 48.000 C 316.588 48.000,315.828 47.460,315.137 46.800 C 314.446 46.140,313.720 45.600,313.522 45.600 C 313.325 45.600,312.714 45.150,312.164 44.600 C 311.614 44.050,310.852 43.600,310.470 43.600 C 310.089 43.600,309.517 43.240,309.200 42.800 C 308.883 42.360,308.393 42.000,308.112 42.000 C 307.830 42.000,307.600 41.850,307.600 41.668 C 307.600 41.485,307.105 41.080,306.500 40.768 C 305.895 40.455,305.051 39.885,304.625 39.500 C 304.198 39.115,303.613 38.800,303.325 38.800 C 303.036 38.800,302.800 38.620,302.800 38.400 C 302.800 38.180,302.480 38.000,302.088 38.000 C 301.697 38.000,301.117 37.640,300.800 37.200 C 300.483 36.760,299.903 36.400,299.512 36.400 C 299.120 36.400,298.800 36.242,298.800 36.049 C 298.800 35.855,298.260 35.473,297.600 35.200 C 296.940 34.927,296.400 34.545,296.400 34.351 C 296.400 34.158,296.040 34.000,295.600 34.000 C 295.160 34.000,294.800 33.820,294.800 33.600 C 294.800 33.380,294.440 33.200,294.000 33.200 C 293.560 33.200,293.200 33.020,293.200 32.800 C 293.200 32.580,292.906 32.400,292.547 32.400 C 292.188 32.400,291.603 32.077,291.247 31.683 C 290.466 30.816,283.229 27.200,282.276 27.200 C 281.904 27.200,281.600 27.020,281.600 26.800 C 281.600 26.580,281.060 26.400,280.400 26.400 C 279.740 26.400,279.200 26.220,279.200 26.000 C 279.200 25.780,278.840 25.600,278.400 25.600 C 277.960 25.600,277.600 25.420,277.600 25.200 C 277.600 24.980,277.240 24.800,276.800 24.800 C 276.360 24.800,276.000 24.620,276.000 24.400 C 276.000 24.180,275.640 24.000,275.200 24.000 C 274.760 24.000,274.400 23.820,274.400 23.600 C 274.400 23.380,273.950 23.200,273.400 23.200 C 272.850 23.200,272.400 23.020,272.400 22.800 C 272.400 22.580,272.040 22.400,271.600 22.400 C 271.160 22.400,270.800 22.220,270.800 22.000 C 270.800 21.780,270.260 21.600,269.600 21.600 C 268.940 21.600,268.400 21.420,268.400 21.200 C 268.400 20.980,267.860 20.800,267.200 20.800 C 266.540 20.800,266.000 20.620,266.000 20.400 C 266.000 20.180,265.640 20.000,265.200 20.000 C 264.760 20.000,264.400 19.820,264.400 19.600 C 264.400 19.380,263.860 19.200,263.200 19.200 C 262.540 19.200,262.000 19.020,262.000 18.800 C 262.000 18.580,261.460 18.400,260.800 18.400 C 260.140 18.400,259.600 18.220,259.600 18.000 C 259.600 17.780,259.071 17.600,258.424 17.600 C 257.777 17.600,257.136 17.420,257.000 17.200 C 256.864 16.980,256.223 16.800,255.576 16.800 C 254.929 16.800,254.400 16.620,254.400 16.400 C 254.400 16.180,253.871 16.000,253.224 16.000 C 252.577 16.000,251.936 15.820,251.800 15.600 C 251.664 15.380,250.933 15.200,250.176 15.200 C 249.419 15.200,248.800 15.020,248.800 14.800 C 248.800 14.580,248.080 14.400,247.200 14.400 C 246.320 14.400,245.600 14.220,245.600 14.000 C 245.600 13.780,244.880 13.600,244.000 13.600 C 243.120 13.600,242.400 13.420,242.400 13.200 C 242.400 12.980,241.601 12.800,240.624 12.800 C 239.647 12.800,238.736 12.620,238.600 12.400 C 238.464 12.180,237.564 12.000,236.600 12.000 C 235.636 12.000,234.736 11.820,234.600 11.600 C 234.464 11.380,233.409 11.200,232.256 11.200 C 231.103 11.200,229.989 11.032,229.780 10.826 C 229.571 10.620,226.745 10.324,223.500 10.168 C 220.255 10.012,217.600 9.730,217.600 9.542 C 217.600 9.354,209.680 9.200,200.000 9.200 C 190.320 9.200,182.400 9.354,182.400 9.542 M264.600 94.000 C 264.736 94.220,265.791 94.400,266.944 94.400 C 268.097 94.400,269.211 94.562,269.420 94.759 C 269.629 94.956,270.520 95.212,271.400 95.327 C 273.466 95.596,275.196 95.978,276.200 96.385 C 276.640 96.563,277.810 96.942,278.800 97.228 C 279.790 97.513,281.918 98.343,283.529 99.073 C 285.140 99.803,286.527 100.400,286.611 100.400 C 289.017 100.400,301.398 109.938,306.363 115.616 C 307.813 117.275,309.389 119.165,309.865 119.816 C 310.341 120.467,311.404 121.894,312.228 122.986 C 314.659 126.209,318.070 132.336,319.584 136.200 C 320.101 137.520,320.677 138.771,320.862 138.980 C 321.048 139.189,321.200 139.763,321.200 140.256 C 321.200 140.749,321.380 141.264,321.600 141.400 C 321.820 141.536,322.000 142.076,322.000 142.600 C 322.000 143.124,322.180 143.664,322.400 143.800 C 322.620 143.936,322.800 144.566,322.800 145.200 C 322.800 145.834,322.980 146.464,323.200 146.600 C 323.420 146.736,323.600 147.456,323.600 148.200 C 323.600 148.944,323.780 149.664,324.000 149.800 C 324.220 149.936,324.400 150.811,324.400 151.744 C 324.400 152.677,324.566 153.611,324.769 153.820 C 325.698 154.777,326.059 175.026,325.253 181.000 C 325.016 182.760,324.717 185.100,324.590 186.200 C 324.463 187.300,324.199 188.560,324.004 189.000 C 323.809 189.440,323.542 190.520,323.409 191.400 C 323.277 192.280,323.067 193.676,322.942 194.503 C 322.818 195.329,322.555 196.105,322.358 196.226 C 322.161 196.348,322.000 196.889,322.000 197.429 C 322.000 197.969,321.838 198.723,321.639 199.105 C 321.440 199.487,321.060 200.610,320.793 201.600 C 320.271 203.533,319.707 205.316,319.209 206.600 C 319.039 207.040,318.220 209.200,317.390 211.400 C 315.812 215.583,310.848 225.965,308.784 229.400 C 308.123 230.500,307.461 231.670,307.313 232.000 C 304.451 238.395,291.567 254.871,281.816 264.608 C 276.808 269.608,271.689 274.313,269.988 275.479 C 269.445 275.851,268.730 276.441,268.400 276.790 C 267.745 277.482,262.873 281.130,259.990 283.086 C 255.493 286.138,245.598 291.600,244.567 291.600 C 244.255 291.600,244.000 291.780,244.000 292.000 C 244.000 292.220,243.765 292.400,243.479 292.400 C 243.192 292.400,242.067 292.832,240.979 293.360 C 239.096 294.273,236.871 295.254,234.900 296.041 C 234.405 296.238,233.595 296.567,233.100 296.772 C 227.818 298.952,212.890 303.384,209.200 303.866 C 208.430 303.967,207.440 304.206,207.000 304.398 C 206.560 304.589,205.570 304.855,204.800 304.988 C 204.030 305.121,202.500 305.412,201.400 305.633 C 198.041 306.310,194.710 306.830,192.400 307.038 C 191.190 307.147,189.840 307.402,189.400 307.605 C 186.801 308.805,82.800 309.280,82.800 308.092 C 82.800 307.468,84.782 302.636,87.223 297.304 C 87.651 296.372,88.000 295.515,88.000 295.400 C 88.000 295.285,88.378 294.338,88.841 293.296 C 90.729 289.039,91.304 287.767,91.644 287.105 C 91.840 286.723,92.000 286.138,92.000 285.805 C 92.000 285.472,92.180 285.200,92.400 285.200 C 92.620 285.200,92.800 284.928,92.800 284.595 C 92.800 284.262,92.960 283.677,93.156 283.295 C 93.546 282.535,94.774 279.802,95.715 277.600 C 96.044 276.830,96.783 275.160,97.357 273.888 C 97.931 272.617,98.400 271.490,98.400 271.384 C 98.400 271.278,98.744 270.428,99.165 269.496 C 101.360 264.633,104.400 257.310,104.400 256.885 C 104.400 256.618,104.580 256.400,104.800 256.400 C 105.020 256.400,105.200 256.158,105.200 255.861 C 105.200 255.565,105.450 254.800,105.756 254.161 C 106.368 252.886,107.507 250.253,107.990 249.000 C 108.160 248.560,108.663 247.390,109.108 246.400 C 109.553 245.410,110.206 243.925,110.558 243.100 C 110.911 242.275,111.491 240.925,111.847 240.100 C 112.204 239.275,112.725 238.060,113.005 237.400 C 113.286 236.740,113.875 235.390,114.313 234.400 C 114.752 233.410,116.140 230.170,117.397 227.200 C 120.308 220.321,120.709 219.389,121.692 217.200 C 122.137 216.210,122.636 215.040,122.800 214.600 C 122.964 214.160,123.481 212.945,123.949 211.900 C 124.417 210.855,125.183 209.145,125.651 208.100 C 126.119 207.055,126.636 205.840,126.800 205.400 C 126.964 204.960,127.463 203.790,127.908 202.800 C 128.353 201.810,129.006 200.325,129.358 199.500 C 130.241 197.437,131.095 195.444,131.759 193.900 C 132.066 193.185,133.168 190.620,134.207 188.200 C 135.247 185.780,136.525 182.850,137.048 181.688 C 137.572 180.527,138.000 179.490,138.000 179.384 C 138.000 179.201,138.654 177.684,140.491 173.600 C 140.937 172.610,141.433 171.440,141.594 171.000 C 141.755 170.560,142.272 169.418,142.743 168.462 C 143.214 167.506,143.600 166.471,143.600 166.162 C 143.600 165.853,143.780 165.600,144.000 165.600 C 144.220 165.600,144.400 165.319,144.400 164.975 C 144.400 164.631,144.958 163.146,145.639 161.675 C 146.321 160.204,147.018 158.640,147.188 158.200 C 147.359 157.760,147.864 156.590,148.310 155.600 C 148.755 154.610,149.503 152.805,149.971 151.588 C 150.438 150.372,151.175 148.796,151.607 148.085 L 152.393 146.793 173.696 146.896 L 195.000 147.000 194.882 148.000 C 194.817 148.550,194.412 149.765,193.982 150.700 C 193.552 151.635,192.820 153.255,192.356 154.300 C 191.892 155.345,191.352 156.513,191.156 156.895 C 190.960 157.277,190.800 157.862,190.800 158.195 C 190.800 158.528,190.620 158.800,190.400 158.800 C 190.180 158.800,189.994 159.115,189.987 159.500 C 189.981 159.885,189.441 161.275,188.787 162.590 C 188.134 163.904,187.600 165.121,187.600 165.294 C 187.600 165.467,187.256 166.372,186.835 167.304 C 186.415 168.237,185.409 170.530,184.600 172.400 C 183.791 174.270,182.785 176.563,182.365 177.496 C 181.944 178.428,181.600 179.278,181.600 179.384 C 181.600 179.490,181.131 180.617,180.557 181.888 C 179.983 183.160,179.244 184.830,178.915 185.600 C 177.974 187.802,176.746 190.535,176.356 191.295 C 176.160 191.677,176.000 192.262,176.000 192.595 C 176.000 192.928,175.820 193.200,175.600 193.200 C 175.380 193.200,175.200 193.472,175.200 193.805 C 175.200 194.138,175.040 194.723,174.844 195.105 C 174.370 196.029,172.778 199.594,172.390 200.600 C 172.004 201.601,171.123 203.663,170.084 206.000 C 169.643 206.990,168.797 208.970,168.203 210.400 C 167.610 211.830,166.871 213.585,166.562 214.300 C 166.253 215.015,165.730 216.230,165.400 217.000 C 165.070 217.770,164.509 219.075,164.153 219.900 C 163.796 220.725,163.237 222.030,162.910 222.800 C 162.031 224.865,160.384 228.498,159.965 229.295 C 159.764 229.677,159.600 230.262,159.600 230.595 C 159.600 230.928,159.420 231.200,159.200 231.200 C 158.980 231.200,158.800 231.472,158.800 231.805 C 158.800 232.138,158.592 232.813,158.338 233.305 C 157.367 235.182,157.200 235.607,157.200 236.195 C 157.200 236.528,157.020 236.800,156.800 236.800 C 156.580 236.800,156.400 237.072,156.400 237.405 C 156.400 237.738,156.243 238.323,156.050 238.705 C 154.681 241.423,154.000 242.925,154.000 243.226 C 154.000 243.419,153.571 244.527,153.046 245.688 C 152.522 246.850,151.518 249.150,150.816 250.800 C 150.114 252.450,149.283 254.385,148.970 255.100 C 148.656 255.815,148.130 257.030,147.800 257.800 C 147.470 258.570,146.910 259.875,146.556 260.700 C 146.202 261.525,145.662 262.723,145.356 263.361 C 145.050 264.000,144.800 264.765,144.800 265.061 C 144.800 265.358,144.620 265.600,144.400 265.600 C 144.180 265.600,144.000 265.872,144.000 266.205 C 144.000 266.538,143.840 267.123,143.644 267.505 C 143.135 268.497,141.553 272.054,141.200 273.000 C 141.036 273.440,140.537 274.610,140.092 275.600 C 139.647 276.590,138.994 278.075,138.642 278.900 C 138.289 279.725,137.712 281.075,137.359 281.900 C 137.007 282.725,136.563 283.760,136.373 284.200 C 133.385 291.114,133.374 290.582,136.500 290.228 C 137.875 290.072,142.150 289.777,146.000 289.573 C 155.842 289.051,162.377 288.218,171.000 286.386 C 171.880 286.199,173.500 285.855,174.600 285.620 C 177.894 284.918,185.749 282.774,186.495 282.373 C 186.877 282.168,187.541 282.000,187.971 282.000 C 188.401 282.000,188.864 281.820,189.000 281.600 C 189.136 281.380,189.676 281.200,190.200 281.200 C 190.724 281.200,191.264 281.020,191.400 280.800 C 191.536 280.580,192.087 280.400,192.624 280.400 C 193.161 280.400,193.600 280.259,193.600 280.087 C 193.600 279.915,194.429 279.530,195.442 279.231 C 196.455 278.932,197.976 278.352,198.822 277.944 C 199.669 277.535,200.640 277.200,200.981 277.200 C 201.321 277.200,201.600 277.020,201.600 276.800 C 201.600 276.580,201.960 276.400,202.400 276.400 C 202.840 276.400,203.200 276.220,203.200 276.000 C 203.200 275.780,203.446 275.600,203.746 275.600 C 204.580 275.600,214.997 270.182,219.000 267.666 C 222.051 265.748,226.201 263.012,226.400 262.787 C 226.510 262.663,227.230 262.129,228.000 261.600 C 228.770 261.071,229.490 260.531,229.600 260.400 C 229.710 260.269,230.430 259.729,231.200 259.200 C 231.970 258.671,232.870 257.959,233.200 257.619 C 233.530 257.278,234.790 256.166,236.000 255.147 C 239.535 252.169,246.399 245.242,249.028 241.997 C 252.385 237.854,256.358 232.439,257.096 231.000 C 257.435 230.340,257.822 229.710,257.956 229.600 C 258.236 229.370,258.978 228.097,260.170 225.800 C 260.626 224.920,261.090 224.110,261.201 224.000 C 261.311 223.890,261.607 223.350,261.859 222.800 C 262.110 222.250,262.771 220.810,263.326 219.600 C 265.269 215.368,266.274 212.559,267.693 207.399 C 269.048 202.471,269.345 201.138,270.369 195.376 C 270.606 194.043,270.800 189.554,270.800 185.400 C 270.800 178.508,270.540 175.541,269.588 171.600 C 269.403 170.830,269.031 169.300,268.764 168.200 C 267.836 164.390,264.527 156.552,263.305 155.271 C 263.027 154.981,262.800 154.589,262.800 154.400 C 262.800 154.211,262.566 153.819,262.281 153.529 C 261.996 153.238,261.147 152.100,260.396 151.000 C 258.797 148.660,254.147 143.968,252.408 142.941 C 251.744 142.549,251.200 142.086,251.200 141.914 C 251.200 141.741,250.945 141.600,250.633 141.600 C 250.322 141.600,250.007 141.449,249.933 141.264 C 249.755 140.813,241.864 136.993,239.600 136.261 C 230.696 133.381,221.396 131.767,207.800 130.742 C 204.620 130.502,180.849 130.208,152.800 130.060 C 103.701 129.802,103.401 129.795,103.518 129.000 C 103.640 128.173,104.175 126.541,104.894 124.800 C 105.540 123.236,106.081 121.872,106.400 121.000 C 106.561 120.560,106.897 119.705,107.146 119.100 C 107.396 118.495,107.756 117.595,107.946 117.100 C 108.137 116.605,108.497 115.705,108.746 115.100 C 108.996 114.495,109.401 113.505,109.647 112.900 C 109.892 112.295,110.252 111.487,110.447 111.105 C 110.641 110.723,110.800 110.059,110.800 109.629 C 110.800 109.199,110.980 108.736,111.200 108.600 C 111.420 108.464,111.600 108.003,111.600 107.576 C 111.600 107.149,111.780 106.800,112.000 106.800 C 112.220 106.800,112.400 106.438,112.400 105.995 C 112.400 105.552,112.559 104.877,112.753 104.495 C 113.359 103.305,113.988 101.751,115.625 97.400 C 116.122 96.080,116.686 94.685,116.878 94.300 C 117.289 93.478,264.093 93.180,264.600 94.000 M256.400 213.759 C 256.400 214.839,248.393 227.158,245.584 230.400 C 244.917 231.170,243.625 232.700,242.712 233.800 C 236.745 240.990,226.166 250.371,217.300 256.333 C 215.282 257.690,213.521 258.800,213.387 258.800 C 213.254 258.800,212.392 259.310,211.472 259.934 C 209.219 261.462,198.921 266.441,195.200 267.801 C 190.103 269.664,188.267 270.288,186.400 270.795 C 185.410 271.063,184.187 271.445,183.681 271.642 C 183.176 271.839,182.357 272.000,181.861 272.000 C 181.366 272.000,180.789 272.162,180.580 272.359 C 180.230 272.690,179.462 272.838,175.000 273.432 C 174.120 273.549,173.040 273.807,172.600 274.003 C 171.800 274.362,170.877 274.484,163.400 275.219 C 154.596 276.086,154.014 276.102,153.778 275.488 C 153.565 274.931,157.489 266.738,158.100 266.467 C 158.265 266.393,158.400 265.988,158.400 265.567 C 158.400 265.145,158.580 264.800,158.800 264.800 C 159.020 264.800,159.200 264.455,159.200 264.033 C 159.200 263.612,159.341 263.207,159.513 263.133 C 159.685 263.060,160.686 261.258,161.736 259.130 C 164.162 254.213,163.584 254.531,170.600 254.255 C 180.892 253.850,190.014 252.638,198.400 250.561 C 200.710 249.989,203.187 249.429,203.904 249.316 C 204.621 249.204,205.306 248.951,205.427 248.756 C 205.548 248.560,206.076 248.400,206.600 248.400 C 207.124 248.400,207.664 248.220,207.800 248.000 C 207.936 247.780,208.399 247.600,208.829 247.600 C 209.259 247.600,209.923 247.441,210.305 247.247 C 210.687 247.052,211.540 246.671,212.200 246.400 C 212.860 246.129,213.713 245.748,214.095 245.553 C 214.477 245.359,215.152 245.200,215.595 245.200 C 216.038 245.200,216.400 245.020,216.400 244.800 C 216.400 244.580,216.638 244.400,216.930 244.400 C 217.452 244.400,224.867 240.721,228.428 238.695 C 231.188 237.125,237.865 232.557,238.800 231.600 C 238.910 231.487,240.166 230.406,241.592 229.198 C 246.473 225.059,251.899 218.990,254.912 214.300 C 255.672 213.117,256.400 212.852,256.400 213.759 " stroke="none" fill="#232323" fill-rule="evenodd"></path><path id="path2" d="M117.462 93.900 C 117.294 94.171,166.174 94.170,234.200 93.897 C 248.280 93.840,227.816 93.750,188.724 93.697 C 149.632 93.644,117.564 93.735,117.462 93.900 M262.800 94.420 C 263.790 94.597,265.140 94.732,265.800 94.720 C 266.685 94.705,266.528 94.616,265.200 94.380 C 264.210 94.203,262.860 94.068,262.200 94.080 C 261.315 94.095,261.472 94.184,262.800 94.420 M115.652 98.052 C 114.951 99.844,114.443 101.377,114.525 101.458 C 114.606 101.539,115.246 100.140,115.948 98.348 C 116.649 96.556,117.157 95.023,117.075 94.942 C 116.994 94.861,116.354 96.260,115.652 98.052 M275.200 96.741 C 275.530 96.934,276.340 97.209,277.000 97.352 C 277.768 97.518,277.984 97.484,277.600 97.259 C 277.270 97.066,276.460 96.791,275.800 96.648 C 275.032 96.482,274.816 96.516,275.200 96.741 M290.800 103.379 C 290.800 103.489,291.340 103.859,292.000 104.200 C 292.660 104.541,293.200 104.731,293.200 104.621 C 293.200 104.511,292.660 104.141,292.000 103.800 C 291.340 103.459,290.800 103.269,290.800 103.379 M293.605 105.073 C 293.608 105.253,294.257 105.819,295.048 106.332 C 295.840 106.845,296.372 107.078,296.231 106.851 C 295.841 106.218,293.599 104.701,293.605 105.073 M298.991 109.283 C 300.096 110.318,301.136 111.173,301.301 111.183 C 301.467 111.192,300.837 110.533,299.901 109.717 C 297.285 107.437,296.746 107.180,298.991 109.283 M111.050 109.991 C 110.147 112.247,110.287 112.583,111.237 110.442 C 111.666 109.475,111.945 108.612,111.858 108.525 C 111.771 108.438,111.408 109.098,111.050 109.991 M305.842 116.103 C 306.919 117.260,308.490 119.015,309.334 120.003 C 310.853 121.783,310.852 121.780,309.227 119.639 C 307.118 116.861,304.556 114.000,304.179 114.000 C 304.017 114.000,304.765 114.946,305.842 116.103 M313.385 125.900 C 314.002 126.835,314.583 127.600,314.676 127.600 C 314.964 127.600,313.433 125.166,312.832 124.669 C 312.520 124.411,312.768 124.965,313.385 125.900 M315.400 129.200 C 315.741 129.860,316.111 130.400,316.221 130.400 C 316.331 130.400,316.141 129.860,315.800 129.200 C 315.459 128.540,315.089 128.000,314.979 128.000 C 314.869 128.000,315.059 128.540,315.400 129.200 M202.000 130.014 C 203.430 130.175,205.590 130.300,206.800 130.292 L 209.000 130.278 206.400 129.986 C 204.970 129.825,202.810 129.700,201.600 129.708 L 199.400 129.722 202.000 130.014 M213.400 130.780 C 214.634 131.115,217.464 131.318,217.167 131.050 C 217.075 130.968,215.920 130.800,214.600 130.677 C 213.022 130.530,212.611 130.565,213.400 130.780 M220.400 131.580 C 221.399 131.920,223.882 132.132,223.567 131.851 C 223.475 131.769,222.500 131.599,221.400 131.472 C 220.051 131.316,219.726 131.351,220.400 131.580 M225.400 132.381 C 226.168 132.729,228.310 132.956,227.967 132.653 C 227.875 132.572,227.080 132.396,226.200 132.262 C 225.085 132.093,224.842 132.129,225.400 132.381 M229.400 133.181 C 230.168 133.529,232.310 133.756,231.967 133.453 C 231.875 133.372,231.080 133.196,230.200 133.062 C 229.085 132.893,228.842 132.929,229.400 133.181 M233.000 134.000 C 233.440 134.189,234.160 134.338,234.600 134.332 C 235.243 134.323,235.204 134.257,234.400 134.000 C 233.032 133.562,231.981 133.562,233.000 134.000 M241.958 136.837 C 242.925 137.266,243.788 137.545,243.875 137.458 C 244.048 137.286,240.965 135.982,240.492 136.028 C 240.331 136.044,240.991 136.408,241.958 136.837 M251.382 141.800 C 253.069 143.010,254.541 144.000,254.655 144.000 C 254.968 144.000,252.830 142.296,250.728 140.870 C 247.618 138.761,248.100 139.445,251.382 141.800 M256.783 146.100 C 257.764 147.145,258.619 148.000,258.683 148.000 C 258.984 148.000,258.666 147.641,256.900 145.983 L 255.000 144.200 256.783 146.100 M322.244 145.400 C 322.573 146.871,322.802 147.190,322.794 146.167 C 322.791 145.745,322.605 145.130,322.382 144.800 C 322.085 144.362,322.048 144.524,322.244 145.400 M152.231 147.500 C 151.803 147.926,150.759 150.493,150.941 150.674 C 151.024 150.758,151.328 150.235,151.615 149.513 C 151.903 148.791,152.212 148.110,152.302 148.000 C 152.392 147.890,161.946 147.707,173.533 147.593 L 194.600 147.386 173.567 147.293 C 161.998 147.242,152.397 147.335,152.231 147.500 M259.200 148.638 C 259.200 148.802,259.453 149.221,259.761 149.569 C 260.070 149.916,261.240 151.537,262.361 153.171 C 263.483 154.805,264.400 156.011,264.400 155.849 C 264.400 155.488,261.408 151.014,260.133 149.469 C 259.620 148.847,259.200 148.473,259.200 148.638 M323.268 149.400 C 323.262 149.840,323.411 150.560,323.600 151.000 C 324.038 152.019,324.038 150.968,323.600 149.600 C 323.343 148.796,323.277 148.757,323.268 149.400 M191.800 153.861 C 191.464 154.665,191.282 155.415,191.395 155.528 C 191.508 155.641,191.600 155.635,191.600 155.516 C 191.600 155.396,191.872 154.646,192.205 153.849 C 192.538 153.052,192.721 152.400,192.611 152.400 C 192.501 152.400,192.136 153.058,191.800 153.861 M324.087 153.200 C 324.083 153.750,324.224 154.650,324.400 155.200 C 324.831 156.544,324.831 155.092,324.400 153.400 C 324.126 152.322,324.094 152.302,324.087 153.200 M149.000 154.661 C 148.664 155.465,148.482 156.215,148.595 156.328 C 148.708 156.441,148.800 156.435,148.800 156.316 C 148.800 156.196,149.072 155.446,149.405 154.649 C 149.738 153.852,149.921 153.200,149.811 153.200 C 149.701 153.200,149.336 153.858,149.000 154.661 M265.586 158.835 C 266.818 161.440,267.514 162.479,266.840 160.705 C 266.264 159.189,264.818 156.400,264.609 156.400 C 264.513 156.400,264.952 157.496,265.586 158.835 M147.600 157.684 C 147.600 157.804,147.328 158.554,146.995 159.351 C 146.662 160.148,146.479 160.800,146.589 160.800 C 146.906 160.800,148.033 157.900,147.805 157.672 C 147.692 157.559,147.600 157.565,147.600 157.684 M189.590 159.000 C 189.376 159.550,189.009 160.495,188.775 161.100 C 188.541 161.705,188.514 162.020,188.715 161.800 C 189.186 161.283,190.458 158.000,190.187 158.000 C 190.073 158.000,189.805 158.450,189.590 159.000 M325.089 161.800 C 325.208 163.780,325.372 165.475,325.453 165.567 C 325.724 165.874,325.544 161.819,325.206 160.000 C 324.970 158.731,324.936 159.263,325.089 161.800 M187.253 164.453 C 186.780 165.593,186.458 166.592,186.539 166.672 C 186.620 166.753,187.073 165.886,187.547 164.747 C 188.020 163.607,188.342 162.608,188.261 162.528 C 188.180 162.447,187.727 163.314,187.253 164.453 M145.200 163.284 C 145.200 163.404,144.928 164.154,144.595 164.951 C 144.262 165.748,144.079 166.400,144.189 166.400 C 144.506 166.400,145.633 163.500,145.405 163.272 C 145.292 163.159,145.200 163.165,145.200 163.284 M269.634 170.200 C 269.622 170.640,269.787 171.270,270.000 171.600 C 270.514 172.395,270.514 171.396,270.000 170.200 L 269.656 169.400 269.634 170.200 M325.073 175.760 C 324.915 177.718,324.863 179.396,324.956 179.489 C 325.203 179.736,325.712 173.863,325.522 172.962 C 325.433 172.543,325.231 173.802,325.073 175.760 M270.440 173.833 C 270.462 174.475,270.633 175.450,270.820 176.000 C 271.049 176.674,271.084 176.349,270.928 175.000 C 270.669 172.750,270.379 172.059,270.440 173.833 M271.360 185.400 C 271.361 188.700,271.422 189.997,271.498 188.282 C 271.573 186.567,271.572 183.867,271.497 182.282 C 271.421 180.697,271.359 182.100,271.360 185.400 M324.200 184.000 C 324.045 185.128,324.002 186.136,324.106 186.239 C 324.209 186.342,324.416 185.500,324.567 184.367 C 324.717 183.234,324.759 182.226,324.661 182.128 C 324.563 182.029,324.355 182.872,324.200 184.000 M132.600 192.661 C 132.264 193.465,132.082 194.215,132.195 194.328 C 132.308 194.441,132.400 194.435,132.400 194.316 C 132.400 194.196,132.672 193.446,133.005 192.649 C 133.338 191.852,133.521 191.200,133.411 191.200 C 133.301 191.200,132.936 191.858,132.600 192.661 M322.656 192.084 C 322.521 192.588,322.427 193.360,322.446 193.800 C 322.465 194.240,322.645 193.898,322.846 193.040 C 323.236 191.378,323.070 190.540,322.656 192.084 M270.600 195.600 C 270.445 196.728,270.402 197.736,270.506 197.839 C 270.609 197.942,270.816 197.100,270.967 195.967 C 271.117 194.834,271.159 193.826,271.061 193.728 C 270.963 193.629,270.755 194.472,270.600 195.600 M173.190 197.000 C 172.976 197.550,172.609 198.495,172.375 199.100 C 172.141 199.705,172.114 200.020,172.315 199.800 C 172.786 199.283,174.058 196.000,173.787 196.000 C 173.673 196.000,173.405 196.450,173.190 197.000 M130.200 198.261 C 129.864 199.065,129.682 199.815,129.795 199.928 C 129.908 200.041,130.000 200.035,130.000 199.916 C 130.000 199.796,130.272 199.046,130.605 198.249 C 130.938 197.452,131.121 196.800,131.011 196.800 C 130.901 196.800,130.536 197.458,130.200 198.261 M269.800 200.400 C 269.648 201.091,269.607 201.741,269.709 201.842 C 269.811 201.944,270.009 201.453,270.150 200.750 C 270.483 199.083,270.160 198.760,269.800 200.400 M128.800 201.284 C 128.800 201.404,128.528 202.154,128.195 202.951 C 127.862 203.748,127.679 204.400,127.789 204.400 C 128.106 204.400,129.233 201.500,129.005 201.272 C 128.892 201.159,128.800 201.165,128.800 201.284 M170.790 202.600 C 170.576 203.150,170.209 204.095,169.975 204.700 C 169.741 205.305,169.714 205.620,169.915 205.400 C 170.386 204.883,171.658 201.600,171.387 201.600 C 171.273 201.600,171.005 202.050,170.790 202.600 M269.029 203.829 C 268.881 204.415,268.838 204.972,268.932 205.066 C 269.027 205.160,269.224 204.758,269.371 204.171 C 269.519 203.585,269.562 203.028,269.468 202.934 C 269.373 202.840,269.176 203.242,269.029 203.829 M126.400 206.884 C 126.400 207.004,126.128 207.754,125.795 208.551 C 125.462 209.348,125.279 210.000,125.389 210.000 C 125.706 210.000,126.833 207.100,126.605 206.872 C 126.492 206.759,126.400 206.765,126.400 206.884 M168.400 208.084 C 168.400 208.204,168.128 208.954,167.795 209.751 C 167.462 210.548,167.279 211.200,167.389 211.200 C 167.706 211.200,168.833 208.300,168.605 208.072 C 168.492 207.959,168.400 207.965,168.400 208.084 M265.700 214.700 C 265.213 215.937,264.878 217.011,264.955 217.089 C 265.032 217.166,265.502 216.226,266.000 215.000 C 266.498 213.774,266.833 212.699,266.745 212.611 C 266.657 212.524,266.187 213.463,265.700 214.700 M253.395 217.062 C 252.958 217.646,252.657 218.384,252.727 218.702 C 252.796 219.020,252.689 219.179,252.488 219.054 C 252.287 218.930,251.611 219.362,250.986 220.014 C 250.362 220.666,249.993 221.200,250.168 221.200 C 250.342 221.200,250.846 220.741,251.288 220.179 C 253.028 217.967,252.395 219.752,250.433 222.590 C 249.288 224.246,248.444 225.600,248.556 225.600 C 248.882 225.600,252.184 220.811,253.589 218.300 C 254.916 215.928,254.800 215.185,253.395 217.062 M262.952 221.100 C 262.574 221.925,262.195 222.735,262.109 222.900 C 262.023 223.065,262.045 223.200,262.158 223.200 C 262.270 223.200,262.671 222.525,263.048 221.700 C 263.426 220.875,263.805 220.065,263.891 219.900 C 263.977 219.735,263.955 219.600,263.842 219.600 C 263.730 219.600,263.329 220.275,262.952 221.100 M248.604 222.796 C 247.974 223.454,247.535 224.056,247.629 224.134 C 247.723 224.212,248.313 223.674,248.939 222.938 C 250.354 221.277,250.145 221.188,248.604 222.796 M261.053 224.900 L 260.333 226.200 261.158 225.200 C 261.889 224.313,262.214 223.600,261.886 223.600 C 261.824 223.600,261.449 224.185,261.053 224.900 M117.800 227.061 C 117.464 227.865,117.282 228.615,117.395 228.728 C 117.508 228.841,117.600 228.835,117.600 228.716 C 117.600 228.596,117.872 227.846,118.205 227.049 C 118.538 226.252,118.721 225.600,118.611 225.600 C 118.501 225.600,118.136 226.258,117.800 227.061 M242.595 228.729 C 241.497 229.758,239.789 231.290,238.800 232.134 C 237.051 233.625,237.061 233.621,239.174 232.016 C 241.716 230.086,244.920 227.187,244.726 226.993 C 244.652 226.919,243.693 227.700,242.595 228.729 M258.752 228.900 C 258.490 229.395,258.015 230.250,257.696 230.800 C 257.139 231.759,257.143 231.767,257.788 231.000 C 258.586 230.052,259.705 228.000,259.424 228.000 C 259.316 228.000,259.014 228.405,258.752 228.900 M308.214 229.035 C 307.841 229.604,307.605 230.138,307.689 230.222 C 307.773 230.307,308.158 229.841,308.544 229.188 C 309.406 227.728,309.148 227.609,308.214 229.035 M115.400 232.661 C 115.064 233.465,114.882 234.215,114.995 234.328 C 115.108 234.441,115.200 234.435,115.200 234.316 C 115.200 234.196,115.472 233.446,115.805 232.649 C 116.138 231.852,116.321 231.200,116.211 231.200 C 116.101 231.200,115.736 231.858,115.400 232.661 M240.000 235.836 C 238.790 237.258,236.514 239.676,234.943 241.210 C 233.371 242.745,232.205 244.000,232.351 244.000 C 232.598 244.000,236.267 240.304,240.989 235.300 C 242.078 234.145,242.797 233.211,242.585 233.225 C 242.373 233.239,241.210 234.414,240.000 235.836 M233.324 235.927 C 231.523 237.167,230.113 238.246,230.192 238.325 C 230.377 238.511,236.266 234.540,236.596 234.006 C 236.952 233.430,236.947 233.433,233.324 235.927 M254.915 234.900 C 253.091 237.284,252.280 238.511,252.695 238.259 C 253.215 237.944,255.762 234.400,255.468 234.400 C 255.375 234.400,255.126 234.625,254.915 234.900 M155.987 237.086 C 155.482 238.359,154.947 239.580,154.798 239.800 C 154.201 240.681,153.210 243.641,153.592 243.405 C 153.816 243.266,154.000 242.989,154.000 242.788 C 154.000 242.588,154.432 241.473,154.959 240.312 C 156.537 236.839,157.220 235.086,157.058 234.924 C 156.973 234.840,156.492 235.813,155.987 237.086 M114.000 235.684 C 114.000 235.804,113.728 236.554,113.395 237.351 C 113.062 238.148,112.879 238.800,112.989 238.800 C 113.306 238.800,114.433 235.900,114.205 235.672 C 114.092 235.559,114.000 235.565,114.000 235.684 M301.274 240.229 C 299.684 242.555,298.571 244.341,298.801 244.199 C 299.365 243.851,304.636 236.000,304.306 236.000 C 304.228 236.000,302.864 237.903,301.274 240.229 M250.555 240.681 C 249.707 241.716,249.222 242.434,249.477 242.276 C 250.021 241.940,252.555 238.800,252.282 238.800 C 252.180 238.800,251.403 239.647,250.555 240.681 M247.481 244.317 C 246.667 245.151,246.000 245.974,246.000 246.145 C 246.000 246.317,246.225 246.210,246.500 245.907 C 246.775 245.605,247.529 244.782,248.175 244.079 C 249.817 242.291,249.278 242.476,247.481 244.317 M219.000 243.978 C 218.120 244.395,217.513 244.750,217.651 244.768 C 218.040 244.818,220.800 243.614,220.800 243.395 C 220.800 243.127,220.799 243.127,219.000 243.978 M214.200 246.000 C 212.660 246.637,211.601 247.168,211.847 247.179 C 212.401 247.205,216.462 245.586,216.980 245.133 C 217.536 244.646,217.285 244.724,214.200 246.000 M228.400 247.257 L 226.200 249.289 228.299 247.608 C 230.139 246.134,231.113 245.173,230.724 245.213 C 230.656 245.220,229.610 246.140,228.400 247.257 M152.000 246.084 C 152.000 246.204,151.728 246.954,151.395 247.751 C 151.062 248.548,150.879 249.200,150.989 249.200 C 151.306 249.200,152.433 246.300,152.205 246.072 C 152.092 245.959,152.000 245.965,152.000 246.084 M240.400 251.683 C 237.512 254.481,236.751 255.332,238.600 253.696 C 241.762 250.899,245.944 246.782,245.585 246.819 C 245.483 246.830,243.150 249.019,240.400 251.683 M292.846 251.542 C 291.293 253.490,289.747 255.312,289.411 255.591 C 289.075 255.870,288.800 256.266,288.800 256.472 C 288.800 256.677,289.843 255.620,291.117 254.123 C 294.039 250.690,296.126 248.000,295.869 248.000 C 295.760 248.000,294.400 249.594,292.846 251.542 M204.456 249.259 C 203.717 249.472,203.187 249.720,203.279 249.812 C 203.481 250.014,206.400 249.237,206.400 248.981 C 206.400 248.746,206.082 248.791,204.456 249.259 M223.129 251.331 C 219.838 253.891,219.213 254.531,221.600 252.897 C 223.469 251.618,226.349 249.225,226.000 249.242 C 225.890 249.248,224.598 250.188,223.129 251.331 M200.400 250.400 C 199.605 250.914,200.604 250.914,201.800 250.400 L 202.600 250.056 201.800 250.034 C 201.360 250.022,200.730 250.187,200.400 250.400 M197.400 251.200 C 196.381 251.638,197.432 251.638,198.800 251.200 C 199.604 250.943,199.643 250.877,199.000 250.868 C 198.560 250.862,197.840 251.011,197.400 251.200 M193.800 252.019 C 193.242 252.271,193.485 252.307,194.600 252.138 C 195.480 252.004,196.275 251.828,196.367 251.747 C 196.710 251.444,194.568 251.671,193.800 252.019 M189.400 252.819 C 188.842 253.071,189.085 253.107,190.200 252.938 C 191.080 252.804,191.875 252.628,191.967 252.547 C 192.310 252.244,190.168 252.471,189.400 252.819 M184.000 253.600 C 182.596 254.050,184.063 254.065,186.200 253.623 L 187.800 253.292 186.400 253.286 C 185.630 253.283,184.550 253.424,184.000 253.600 M175.800 254.400 L 174.200 254.686 175.800 254.714 C 176.680 254.729,178.210 254.597,179.200 254.420 L 181.000 254.100 179.200 254.107 C 178.210 254.111,176.680 254.242,175.800 254.400 M163.903 255.700 C 163.041 257.017,161.049 261.069,161.494 260.600 C 161.964 260.104,164.840 254.800,164.638 254.800 C 164.558 254.800,164.227 255.205,163.903 255.700 M213.400 258.053 C 212.300 258.734,211.220 259.476,211.000 259.703 C 210.557 260.158,213.314 258.590,214.834 257.521 C 216.431 256.398,215.539 256.729,213.400 258.053 M286.240 259.082 C 285.162 260.247,284.442 261.182,284.640 261.159 C 285.067 261.111,288.596 257.240,288.361 257.077 C 288.273 257.015,287.318 257.918,286.240 259.082 M229.800 260.646 C 229.140 261.183,226.980 262.724,225.000 264.071 C 223.020 265.419,221.220 266.705,221.000 266.929 C 220.325 267.617,223.213 265.770,226.957 263.119 C 228.914 261.734,230.709 260.475,230.946 260.322 C 231.183 260.169,231.292 259.960,231.188 259.858 C 231.085 259.755,230.460 260.110,229.800 260.646 M280.864 264.661 C 279.249 266.311,277.998 267.732,278.085 267.818 C 278.172 267.905,279.669 266.541,281.412 264.788 C 283.155 263.035,284.405 261.614,284.191 261.631 C 283.976 261.648,282.479 263.012,280.864 264.661 M101.400 265.061 C 101.064 265.865,100.882 266.615,100.995 266.728 C 101.108 266.841,101.200 266.835,101.200 266.716 C 101.200 266.596,101.472 265.846,101.805 265.049 C 102.138 264.252,102.321 263.600,102.211 263.600 C 102.101 263.600,101.736 264.258,101.400 265.061 M217.300 269.026 C 216.365 269.587,215.600 270.140,215.600 270.255 C 215.600 270.471,218.299 268.938,218.980 268.336 C 219.667 267.728,219.027 267.991,217.300 269.026 M274.200 271.020 C 272.880 272.227,271.041 273.796,270.112 274.507 C 269.184 275.218,268.419 275.948,268.412 276.129 C 268.399 276.475,274.933 271.001,276.189 269.612 C 277.477 268.189,276.674 268.758,274.200 271.020 M99.000 270.661 C 98.664 271.465,98.482 272.215,98.595 272.328 C 98.708 272.441,98.800 272.435,98.800 272.316 C 98.800 272.196,99.072 271.446,99.405 270.649 C 99.738 269.852,99.921 269.200,99.811 269.200 C 99.701 269.200,99.336 269.858,99.000 270.661 M186.456 270.059 C 185.717 270.272,185.187 270.520,185.279 270.612 C 185.481 270.814,188.400 270.037,188.400 269.781 C 188.400 269.546,188.082 269.591,186.456 270.059 M182.600 271.200 C 181.581 271.638,182.632 271.638,184.000 271.200 C 184.804 270.943,184.843 270.877,184.200 270.868 C 183.760 270.862,183.040 271.011,182.600 271.200 M212.300 271.829 C 210.805 272.640,210.896 272.978,212.400 272.200 C 213.060 271.859,213.600 271.494,213.600 271.390 C 213.600 271.132,213.557 271.147,212.300 271.829 M179.400 272.000 C 178.381 272.438,179.432 272.438,180.800 272.000 C 181.604 271.743,181.643 271.677,181.000 271.668 C 180.560 271.662,179.840 271.811,179.400 272.000 M175.800 272.819 C 175.242 273.071,175.485 273.107,176.600 272.938 C 177.480 272.804,178.275 272.628,178.367 272.547 C 178.710 272.244,176.568 272.471,175.800 272.819 M171.600 273.600 C 170.256 274.031,171.708 274.031,173.400 273.600 C 174.478 273.326,174.498 273.294,173.600 273.287 C 173.050 273.283,172.150 273.424,171.600 273.600 M97.600 273.684 C 97.600 273.804,97.328 274.554,96.995 275.351 C 96.662 276.148,96.479 276.800,96.589 276.800 C 96.906 276.800,98.033 273.900,97.805 273.672 C 97.692 273.559,97.600 273.565,97.600 273.684 M154.190 274.430 C 153.797 275.671,154.035 275.722,158.077 275.277 L 161.800 274.866 158.200 274.933 C 154.973 274.993,154.612 274.928,154.718 274.300 C 154.880 273.330,154.511 273.421,154.190 274.430 M165.800 274.420 C 165.011 274.635,165.422 274.670,167.000 274.523 C 168.320 274.400,169.475 274.232,169.567 274.150 C 169.864 273.882,167.034 274.085,165.800 274.420 M205.200 275.400 C 204.650 275.714,204.380 275.972,204.600 275.972 C 204.820 275.972,205.450 275.714,206.000 275.400 C 206.550 275.086,206.820 274.828,206.600 274.828 C 206.380 274.828,205.750 275.086,205.200 275.400 M198.600 278.378 C 197.720 278.795,197.113 279.150,197.251 279.168 C 197.640 279.218,200.400 278.014,200.400 277.795 C 200.400 277.527,200.399 277.527,198.600 278.378 M264.385 279.229 L 263.000 280.458 264.500 279.381 C 265.826 278.430,266.257 278.000,265.885 278.000 C 265.822 278.000,265.147 278.553,264.385 279.229 M95.200 279.284 C 95.200 279.404,94.928 280.154,94.595 280.951 C 94.262 281.748,94.079 282.400,94.189 282.400 C 94.506 282.400,95.633 279.500,95.405 279.272 C 95.292 279.159,95.200 279.165,95.200 279.284 M194.400 280.000 C 193.410 280.415,192.870 280.752,193.200 280.748 C 193.872 280.740,197.228 279.263,196.600 279.252 C 196.380 279.248,195.390 279.585,194.400 280.000 M137.200 280.484 C 137.200 280.604,136.928 281.354,136.595 282.151 C 136.262 282.948,136.079 283.600,136.189 283.600 C 136.506 283.600,137.633 280.700,137.405 280.472 C 137.292 280.359,137.200 280.365,137.200 280.484 M260.081 282.172 C 258.223 283.485,257.962 283.861,259.531 282.962 C 260.263 282.543,261.050 281.975,261.280 281.700 C 261.871 280.993,261.593 281.102,260.081 282.172 M185.000 283.200 C 184.496 283.417,184.422 283.544,184.800 283.544 C 185.130 283.544,185.760 283.389,186.200 283.200 C 186.704 282.983,186.778 282.856,186.400 282.856 C 186.070 282.856,185.440 283.011,185.000 283.200 M176.200 285.600 C 175.181 286.038,176.232 286.038,177.600 285.600 C 178.404 285.343,178.443 285.277,177.800 285.268 C 177.360 285.262,176.640 285.411,176.200 285.600 M254.300 285.829 C 252.805 286.640,252.896 286.978,254.400 286.200 C 255.060 285.859,255.600 285.494,255.600 285.390 C 255.600 285.132,255.557 285.147,254.300 285.829 M134.255 287.455 C 133.876 288.249,133.653 288.986,133.759 289.093 C 133.866 289.199,134.236 288.609,134.582 287.782 C 135.398 285.829,135.149 285.580,134.255 287.455 M172.800 286.400 C 172.005 286.914,173.004 286.914,174.200 286.400 L 175.000 286.056 174.200 286.034 C 173.760 286.022,173.130 286.187,172.800 286.400 M169.000 287.200 L 168.200 287.544 169.000 287.532 C 169.440 287.526,170.250 287.376,170.800 287.200 L 171.800 286.880 170.800 286.868 C 170.250 286.862,169.440 287.011,169.000 287.200 M248.046 289.213 C 243.615 291.511,242.206 292.353,243.812 291.743 C 246.015 290.908,253.698 286.694,252.780 286.826 C 252.681 286.840,250.551 287.914,248.046 289.213 M164.600 288.000 L 163.800 288.344 164.600 288.344 C 165.040 288.344,165.760 288.189,166.200 288.000 L 167.000 287.656 166.200 287.656 C 165.760 287.656,165.040 287.811,164.600 288.000 M159.600 288.800 C 158.256 289.231,159.708 289.231,161.400 288.800 C 162.478 288.526,162.498 288.494,161.600 288.487 C 161.050 288.483,160.150 288.624,159.600 288.800 M152.800 289.600 C 150.801 290.021,152.852 290.038,155.200 289.620 C 156.824 289.332,156.863 289.300,155.600 289.303 C 154.830 289.304,153.570 289.438,152.800 289.600 M133.302 290.000 C 133.502 290.738,140.123 291.005,144.800 290.465 C 146.978 290.213,145.899 290.175,140.863 290.323 C 135.178 290.491,133.855 290.426,133.533 289.964 C 133.202 289.490,133.165 289.496,133.302 290.000 M85.000 303.061 C 84.664 303.865,84.482 304.615,84.595 304.728 C 84.708 304.841,84.800 304.835,84.800 304.716 C 84.800 304.596,85.072 303.846,85.405 303.049 C 85.738 302.252,85.921 301.600,85.811 301.600 C 85.701 301.600,85.336 302.258,85.000 303.061 M214.400 302.000 C 213.596 302.257,213.557 302.323,214.200 302.332 C 214.640 302.338,215.360 302.189,215.800 302.000 C 216.819 301.562,215.768 301.562,214.400 302.000 M208.000 303.600 C 207.196 303.857,207.157 303.923,207.800 303.932 C 208.240 303.938,208.960 303.789,209.400 303.600 C 210.419 303.162,209.368 303.162,208.000 303.600 M195.105 306.283 C 195.602 306.379,196.322 306.375,196.705 306.275 C 197.087 306.175,196.680 306.096,195.800 306.101 C 194.920 306.105,194.607 306.187,195.105 306.283 M187.600 307.200 C 186.538 307.424,186.441 307.502,187.200 307.524 C 187.750 307.541,188.920 307.405,189.800 307.223 C 191.134 306.947,191.200 306.893,190.200 306.899 C 189.540 306.902,188.370 307.038,187.600 307.200 M179.200 308.000 C 177.027 308.266,177.022 308.270,178.800 308.291 C 179.790 308.303,181.680 308.179,183.000 308.015 L 185.400 307.718 183.400 307.724 C 182.300 307.728,180.410 307.852,179.200 308.000 " stroke="none" fill="#949494" fill-rule="evenodd"></path><path id="path3" d="M261.233 93.745 C 261.628 94.089,264.781 94.293,264.576 93.962 C 264.453 93.763,263.613 93.600,262.710 93.600 C 261.806 93.600,261.142 93.665,261.233 93.745 M291.800 103.472 C 292.020 103.685,293.190 104.528,294.400 105.346 C 295.990 106.421,296.248 106.524,295.330 105.717 C 294.145 104.674,290.922 102.625,291.800 103.472 M302.400 111.908 C 304.490 113.932,306.283 115.591,306.385 115.594 C 306.725 115.605,302.625 111.556,300.600 109.882 C 299.500 108.972,300.310 109.884,302.400 111.908 M307.808 117.700 C 308.667 118.745,309.434 119.600,309.512 119.600 C 309.798 119.600,308.061 117.378,307.166 116.600 C 306.660 116.160,306.949 116.655,307.808 117.700 M105.358 123.500 C 105.239 123.885,104.975 124.513,104.771 124.895 C 104.567 125.277,104.401 125.817,104.402 126.095 C 104.405 126.715,105.373 124.912,105.693 123.689 C 105.966 122.643,105.675 122.478,105.358 123.500 M313.385 125.100 C 314.002 126.035,314.583 126.800,314.676 126.800 C 314.964 126.800,313.433 124.366,312.832 123.869 C 312.520 123.611,312.768 124.165,313.385 125.100 M314.815 127.400 C 314.817 127.620,315.186 128.250,315.636 128.800 C 316.179 129.464,316.315 129.531,316.040 129.000 C 315.366 127.695,314.812 126.972,314.815 127.400 M103.542 129.702 C 103.708 129.868,125.344 129.958,151.622 129.902 L 199.400 129.800 151.320 129.600 C 124.876 129.490,103.376 129.536,103.542 129.702 M205.315 130.696 C 206.588 130.776,208.568 130.775,209.715 130.694 C 210.862 130.614,209.820 130.549,207.400 130.550 C 204.980 130.551,204.042 130.616,205.315 130.696 M215.500 131.489 C 216.215 131.578,217.385 131.578,218.100 131.489 C 218.815 131.401,218.230 131.328,216.800 131.328 C 215.370 131.328,214.785 131.401,215.500 131.489 M221.900 132.282 C 222.395 132.378,223.205 132.378,223.700 132.282 C 224.195 132.187,223.790 132.109,222.800 132.109 C 221.810 132.109,221.405 132.187,221.900 132.282 M226.033 132.945 C 226.125 133.025,227.001 133.192,227.979 133.318 C 229.130 133.465,229.554 133.416,229.179 133.179 C 228.645 132.840,225.658 132.619,226.033 132.945 M230.833 133.744 C 230.925 133.823,231.540 134.008,232.200 134.156 C 233.076 134.352,233.238 134.315,232.800 134.018 C 232.260 133.653,230.432 133.398,230.833 133.744 M255.200 144.879 C 255.200 145.217,258.076 148.058,258.246 147.887 C 258.323 147.811,257.669 147.048,256.793 146.193 C 255.917 145.337,255.200 144.746,255.200 144.879 M151.949 147.500 C 151.460 148.124,151.471 148.144,152.053 147.690 C 152.569 147.287,157.194 147.203,173.915 147.290 C 185.580 147.350,195.040 147.265,194.938 147.100 C 194.486 146.369,152.530 146.759,151.949 147.500 M260.868 151.752 C 261.381 152.543,261.947 153.192,262.127 153.195 C 262.499 153.201,260.982 150.959,260.349 150.569 C 260.122 150.428,260.355 150.960,260.868 151.752 M324.780 155.310 C 324.975 156.958,324.983 156.967,325.119 155.649 C 325.196 154.906,325.106 154.146,324.920 153.960 C 324.733 153.773,324.671 154.381,324.780 155.310 M325.506 162.519 C 325.702 166.847,325.885 167.389,325.939 163.800 C 325.966 162.040,325.850 160.383,325.682 160.119 C 325.514 159.854,325.435 160.934,325.506 162.519 M269.168 169.900 C 269.359 171.281,269.387 171.309,269.519 170.251 C 269.598 169.619,269.505 168.945,269.312 168.752 C 269.110 168.550,269.049 169.040,269.168 169.900 M185.000 170.661 C 184.664 171.465,184.482 172.215,184.595 172.328 C 184.708 172.441,184.800 172.435,184.800 172.316 C 184.800 172.196,185.072 171.446,185.405 170.649 C 185.738 169.852,185.921 169.200,185.811 169.200 C 185.701 169.200,185.336 169.858,185.000 170.661 M325.680 174.067 C 325.636 175.754,325.496 177.464,325.370 177.867 C 325.156 178.547,325.172 178.550,325.587 177.905 C 325.852 177.492,325.978 175.951,325.897 174.105 L 325.761 171.000 325.680 174.067 M270.101 173.800 C 270.105 174.680,270.187 174.993,270.283 174.495 C 270.379 173.998,270.375 173.278,270.275 172.895 C 270.175 172.513,270.096 172.920,270.101 173.800 M138.600 177.861 C 138.264 178.665,138.082 179.415,138.195 179.528 C 138.308 179.641,138.400 179.635,138.400 179.516 C 138.400 179.396,138.672 178.646,139.005 177.849 C 139.338 177.052,139.521 176.400,139.411 176.400 C 139.301 176.400,138.936 177.058,138.600 177.861 M270.969 185.600 C 270.969 190.110,271.027 191.955,271.098 189.700 C 271.170 187.445,271.170 183.755,271.098 181.500 C 271.027 179.245,270.969 181.090,270.969 185.600 M324.864 182.267 C 324.829 182.964,324.696 183.864,324.570 184.267 C 324.353 184.959,324.365 184.960,324.794 184.291 C 325.045 183.902,325.177 183.002,325.089 182.291 L 324.928 181.000 324.864 182.267 M270.109 197.200 C 270.109 198.190,270.187 198.595,270.282 198.100 C 270.378 197.605,270.378 196.795,270.282 196.300 C 270.187 195.805,270.109 196.210,270.109 197.200 M269.260 201.267 C 269.227 201.854,269.096 202.664,268.970 203.067 C 268.752 203.760,268.765 203.761,269.195 203.090 C 269.446 202.699,269.577 201.889,269.486 201.290 L 269.320 200.200 269.260 201.267 M268.446 204.867 C 268.421 205.234,268.296 205.864,268.170 206.267 C 267.952 206.962,267.963 206.963,268.397 206.287 C 268.648 205.896,268.773 205.266,268.673 204.887 C 268.511 204.268,268.488 204.266,268.446 204.867 M267.646 207.667 C 267.621 208.034,267.496 208.664,267.370 209.067 C 267.152 209.762,267.163 209.763,267.597 209.087 C 267.848 208.696,267.973 208.066,267.873 207.687 C 267.711 207.068,267.688 207.066,267.646 207.667 M123.829 212.061 C 123.483 212.755,123.201 213.520,123.202 213.761 C 123.205 214.203,124.014 212.802,124.509 211.500 C 124.949 210.343,124.503 210.711,123.829 212.061 M254.955 214.212 C 254.590 214.769,254.406 215.339,254.546 215.479 C 254.686 215.619,254.800 215.523,254.800 215.267 C 254.800 215.010,254.986 214.800,255.214 214.800 C 255.492 214.800,255.483 215.097,255.187 215.700 C 254.789 216.512,254.826 216.502,255.564 215.600 C 256.424 214.549,256.674 213.200,256.009 213.200 C 255.794 213.200,255.320 213.656,254.955 214.212 M315.400 215.461 C 315.064 216.265,314.882 217.015,314.995 217.128 C 315.108 217.241,315.200 217.235,315.200 217.116 C 315.200 216.996,315.472 216.246,315.805 215.449 C 316.138 214.652,316.321 214.000,316.211 214.000 C 316.101 214.000,315.736 214.658,315.400 215.461 M252.800 217.200 C 252.330 217.860,252.036 218.400,252.146 218.400 C 252.256 218.400,252.730 217.860,253.200 217.200 C 253.670 216.540,253.964 216.000,253.854 216.000 C 253.744 216.000,253.270 216.540,252.800 217.200 M121.429 217.661 C 121.083 218.355,120.801 219.120,120.802 219.361 C 120.805 219.803,121.614 218.402,122.109 217.100 C 122.549 215.943,122.103 216.311,121.429 217.661 M164.800 217.284 C 164.800 217.404,164.528 218.154,164.195 218.951 C 163.862 219.748,163.679 220.400,163.789 220.400 C 164.106 220.400,165.233 217.500,165.005 217.272 C 164.892 217.159,164.800 217.165,164.800 217.284 M250.175 220.500 L 249.000 221.800 250.300 220.625 C 251.015 219.979,251.600 219.394,251.600 219.325 C 251.600 219.016,251.270 219.288,250.175 220.500 M162.400 222.884 C 162.400 223.004,162.128 223.754,161.795 224.551 C 161.462 225.348,161.279 226.000,161.389 226.000 C 161.706 226.000,162.833 223.100,162.605 222.872 C 162.492 222.759,162.400 222.765,162.400 222.884 M247.029 228.004 C 245.160 230.461,244.463 231.775,246.112 229.731 C 247.756 227.694,249.245 225.600,249.049 225.600 C 248.944 225.600,248.034 226.682,247.029 228.004 M309.453 227.700 L 308.733 229.000 309.558 228.000 C 310.289 227.113,310.614 226.400,310.286 226.400 C 310.224 226.400,309.849 226.985,309.453 227.700 M241.600 229.257 L 239.400 231.289 241.499 229.608 C 243.339 228.134,244.313 227.173,243.924 227.213 C 243.856 227.220,242.810 228.140,241.600 229.257 M253.008 236.842 C 252.201 237.965,251.732 238.765,251.966 238.621 C 252.452 238.320,254.932 234.800,254.657 234.800 C 254.557 234.800,253.815 235.719,253.008 236.842 M236.007 240.555 L 231.813 245.000 236.307 240.607 C 238.778 238.191,240.800 236.166,240.800 236.107 C 240.800 235.629,239.624 236.720,236.007 240.555 M302.237 239.500 C 301.240 241.053,301.099 241.410,301.801 240.600 C 302.819 239.426,304.172 237.200,303.867 237.200 C 303.782 237.200,303.049 238.235,302.237 239.500 M228.000 238.865 C 225.909 240.072,225.548 240.601,227.502 239.594 C 228.438 239.112,229.304 238.556,229.426 238.359 C 229.715 237.890,229.648 237.914,228.000 238.865 M248.959 242.100 C 247.207 244.121,246.687 244.800,246.890 244.800 C 247.007 244.800,247.767 243.990,248.579 243.000 C 250.081 241.166,250.379 240.463,248.959 242.100 M229.178 247.100 L 227.800 248.600 229.300 247.222 C 230.696 245.938,230.984 245.600,230.678 245.600 C 230.612 245.600,229.937 246.275,229.178 247.100 M295.672 248.585 C 294.532 250.007,293.600 251.284,293.600 251.422 C 293.600 251.560,294.441 250.622,295.469 249.337 C 297.985 246.192,298.125 246.000,297.921 246.000 C 297.823 246.000,296.811 247.163,295.672 248.585 M199.200 250.400 C 198.376 250.664,198.341 250.726,199.000 250.754 C 199.440 250.773,200.070 250.613,200.400 250.400 C 201.101 249.947,200.614 249.947,199.200 250.400 M195.800 251.200 C 194.693 251.482,194.677 251.509,195.600 251.547 C 196.150 251.569,196.870 251.413,197.200 251.200 C 197.881 250.760,197.529 250.760,195.800 251.200 M238.962 252.457 C 238.543 252.929,237.156 254.189,235.879 255.257 C 234.603 256.326,233.715 257.200,233.907 257.200 C 234.304 257.200,240.327 251.648,239.962 251.619 C 239.831 251.609,239.381 251.986,238.962 252.457 M190.705 252.283 C 191.202 252.379,191.922 252.375,192.305 252.275 C 192.687 252.175,192.280 252.096,191.400 252.101 C 190.520 252.105,190.207 252.187,190.705 252.283 M149.029 254.061 C 148.683 254.755,148.401 255.520,148.402 255.761 C 148.405 256.203,149.214 254.802,149.709 253.500 C 150.149 252.343,149.703 252.711,149.029 254.061 M185.705 253.087 C 186.314 253.179,187.214 253.177,187.705 253.082 C 188.197 252.987,187.700 252.911,186.600 252.914 C 185.500 252.917,185.097 252.995,185.705 253.087 M178.691 253.889 C 179.401 253.977,180.661 253.979,181.491 253.892 C 182.321 253.805,181.740 253.733,180.200 253.731 C 178.660 253.729,177.981 253.800,178.691 253.889 M166.700 254.696 C 168.075 254.774,170.325 254.774,171.700 254.696 C 173.075 254.618,171.950 254.554,169.200 254.554 C 166.450 254.554,165.325 254.618,166.700 254.696 M103.600 258.884 C 103.600 259.004,103.328 259.754,102.995 260.551 C 102.662 261.348,102.479 262.000,102.589 262.000 C 102.906 262.000,104.033 259.100,103.805 258.872 C 103.692 258.759,103.600 258.765,103.600 258.884 M146.298 260.395 C 145.357 262.567,145.440 262.985,146.422 261.017 C 146.856 260.146,147.163 259.288,147.103 259.110 C 147.044 258.931,146.681 259.510,146.298 260.395 M209.508 260.697 C 208.467 261.276,207.681 261.814,207.761 261.894 C 207.923 262.056,210.788 260.527,211.380 259.962 C 211.975 259.395,211.549 259.562,209.508 260.697 M281.578 264.500 C 279.036 267.085,277.059 269.200,277.185 269.200 C 277.525 269.200,286.590 260.045,286.380 259.913 C 286.281 259.851,284.120 261.915,281.578 264.500 M200.500 265.226 C 199.565 265.665,198.800 266.119,198.800 266.235 C 198.800 266.352,198.935 266.377,199.100 266.291 C 199.265 266.205,200.075 265.826,200.900 265.448 C 201.725 265.071,202.400 264.681,202.400 264.581 C 202.400 264.333,202.416 264.328,200.500 265.226 M271.371 274.103 L 270.200 275.397 271.400 274.399 C 272.060 273.849,272.675 273.355,272.767 273.300 C 272.858 273.245,272.845 273.112,272.738 273.004 C 272.630 272.896,272.015 273.391,271.371 274.103 M153.727 275.000 C 153.815 275.870,158.133 276.413,159.385 275.712 C 159.711 275.530,158.666 275.452,157.021 275.535 C 154.423 275.666,154.049 275.596,153.860 274.942 C 153.673 274.293,153.656 274.300,153.727 275.000 M165.400 274.800 L 163.400 275.074 165.200 275.131 C 166.190 275.162,167.270 275.013,167.600 274.800 C 167.930 274.587,168.020 274.438,167.800 274.469 C 167.580 274.500,166.500 274.649,165.400 274.800 M264.400 279.649 C 263.006 280.871,263.005 280.872,264.288 280.019 C 264.996 279.548,265.682 278.991,265.812 278.781 C 266.197 278.157,265.877 278.354,264.400 279.649 M178.000 284.800 C 177.176 285.064,177.141 285.126,177.800 285.154 C 178.240 285.173,178.870 285.013,179.200 284.800 C 179.901 284.347,179.414 284.347,178.000 284.800 M174.400 285.600 C 173.016 285.891,173.014 285.895,174.200 285.941 C 174.860 285.967,175.670 285.813,176.000 285.600 C 176.666 285.170,176.445 285.170,174.400 285.600 M170.100 286.676 C 170.485 286.776,171.115 286.776,171.500 286.676 C 171.885 286.575,171.570 286.493,170.800 286.493 C 170.030 286.493,169.715 286.575,170.100 286.676 M167.000 287.200 L 165.400 287.486 166.800 287.537 C 167.570 287.565,168.470 287.413,168.800 287.200 C 169.455 286.777,169.362 286.777,167.000 287.200 M160.905 288.287 C 161.514 288.379,162.414 288.377,162.905 288.282 C 163.397 288.187,162.900 288.111,161.800 288.114 C 160.700 288.117,160.297 288.195,160.905 288.287 M90.229 290.061 C 89.883 290.755,89.601 291.520,89.602 291.761 C 89.605 292.203,90.414 290.802,90.909 289.500 C 91.349 288.343,90.903 288.711,90.229 290.061 M154.700 289.089 C 155.415 289.178,156.585 289.178,157.300 289.089 C 158.015 289.001,157.430 288.928,156.000 288.928 C 154.570 288.928,153.985 289.001,154.700 289.089 M139.000 289.981 C 138.120 290.128,140.100 290.178,143.400 290.091 C 146.700 290.005,149.580 289.873,149.800 289.799 C 150.550 289.545,140.606 289.712,139.000 289.981 M88.790 293.400 C 88.576 293.950,88.209 294.895,87.975 295.500 C 87.741 296.105,87.714 296.420,87.915 296.200 C 88.386 295.683,89.658 292.400,89.387 292.400 C 89.273 292.400,89.005 292.850,88.790 293.400 M239.000 293.978 C 238.120 294.395,237.513 294.750,237.651 294.768 C 238.040 294.818,240.800 293.614,240.800 293.395 C 240.800 293.127,240.799 293.127,239.000 293.978 M231.094 297.085 C 230.045 297.435,229.267 297.800,229.364 297.897 C 229.574 298.107,232.436 297.174,232.980 296.718 C 233.471 296.307,233.365 296.328,231.094 297.085 M225.416 299.064 C 224.545 299.378,223.735 299.731,223.617 299.850 C 223.301 300.166,225.609 299.553,227.000 298.951 C 228.600 298.258,227.417 298.343,225.416 299.064 M216.000 302.018 C 215.562 302.315,215.724 302.352,216.600 302.156 C 218.071 301.827,218.390 301.598,217.367 301.606 C 216.945 301.609,216.330 301.795,216.000 302.018 M193.400 306.800 C 192.293 307.082,192.277 307.109,193.200 307.147 C 193.750 307.169,194.470 307.013,194.800 306.800 C 195.481 306.360,195.129 306.360,193.400 306.800 M187.600 307.600 L 186.200 307.895 187.676 307.947 C 188.488 307.976,189.264 307.820,189.400 307.600 C 189.668 307.166,189.661 307.166,187.600 307.600 M178.600 308.400 L 175.400 308.653 178.400 308.721 C 180.050 308.757,181.670 308.613,182.000 308.400 C 182.330 308.187,182.420 308.043,182.200 308.079 C 181.980 308.116,180.360 308.261,178.600 308.400 " stroke="none" fill="#707070" fill-rule="evenodd"></path><path id="path4" d="M202.100 130.276 C 202.485 130.376,203.115 130.376,203.500 130.276 C 203.885 130.175,203.570 130.093,202.800 130.093 C 202.030 130.093,201.715 130.175,202.100 130.276 M325.724 169.000 C 325.726 170.320,325.801 170.812,325.890 170.093 C 325.979 169.374,325.977 168.294,325.886 167.693 C 325.795 167.092,325.722 167.680,325.724 169.000 M244.378 247.500 L 243.000 249.000 244.500 247.622 C 245.896 246.338,246.184 246.000,245.878 246.000 C 245.812 246.000,245.137 246.675,244.378 247.500 M141.100 290.282 C 141.595 290.378,142.405 290.378,142.900 290.282 C 143.395 290.187,142.990 290.109,142.000 290.109 C 141.010 290.109,140.605 290.187,141.100 290.282 M106.500 308.700 C 119.205 308.759,139.995 308.759,152.700 308.700 C 165.405 308.641,155.010 308.593,129.600 308.593 C 104.190 308.593,93.795 308.641,106.500 308.700 " stroke="none" fill="#848484" fill-rule="evenodd"></path></g></svg>